<svg id="Layer_1" data-name="Layer 1" xmlns="http://www.w3.org/2000/svg" xmlns:xlink="http://www.w3.org/1999/xlink" viewBox="0 0 1111.98 695.44"><defs><style>.cls-1{fill:none;}.cls-13,.cls-2{opacity:0.5;}.cls-2{fill:url(#linear-gradient);}.cls-3{fill:url(#linear-gradient-2);}.cls-12,.cls-13,.cls-18,.cls-20,.cls-4,.cls-84,.cls-86{fill:#fff;}.cls-4{opacity:0.69;}.cls-5{opacity:0.58;}.cls-6{fill:url(#linear-gradient-3);}.cls-7{opacity:0.67;}.cls-8{fill:url(#linear-gradient-4);}.cls-9{fill:url(#linear-gradient-5);}.cls-10{fill:url(#linear-gradient-6);}.cls-11{fill:url(#linear-gradient-7);}.cls-12{opacity:0.65;}.cls-14{fill:url(#linear-gradient-8);}.cls-15{fill:url(#linear-gradient-9);}.cls-16{fill:url(#linear-gradient-10);}.cls-17{fill:url(#linear-gradient-11);}.cls-19{fill:url(#linear-gradient-12);}.cls-20{opacity:0.87;}.cls-21{fill:url(#linear-gradient-13);}.cls-22{fill:url(#linear-gradient-14);}.cls-23{fill:url(#linear-gradient-15);}.cls-24{fill:url(#linear-gradient-16);}.cls-25{fill:url(#linear-gradient-17);}.cls-26{fill:url(#linear-gradient-18);}.cls-27{fill:url(#linear-gradient-19);}.cls-28{fill:url(#linear-gradient-20);}.cls-29{fill:url(#linear-gradient-21);}.cls-30{fill:url(#linear-gradient-22);}.cls-31{fill:url(#linear-gradient-23);}.cls-32{fill:url(#linear-gradient-24);}.cls-33{fill:url(#linear-gradient-25);}.cls-34{fill:url(#linear-gradient-26);}.cls-35{fill:url(#linear-gradient-27);}.cls-36{fill:url(#linear-gradient-28);}.cls-37{fill:url(#linear-gradient-29);}.cls-38{fill:url(#linear-gradient-30);}.cls-39{fill:url(#linear-gradient-31);}.cls-40{fill:url(#linear-gradient-32);}.cls-41{clip-path:url(#clip-path);}.cls-42{fill:url(#linear-gradient-33);}.cls-43{fill:url(#linear-gradient-34);}.cls-44{fill:url(#linear-gradient-35);}.cls-45{fill:url(#linear-gradient-36);}.cls-46{fill:url(#linear-gradient-37);}.cls-47{fill:url(#linear-gradient-38);}.cls-48{fill:url(#linear-gradient-39);}.cls-49{fill:url(#linear-gradient-40);}.cls-50{fill:url(#linear-gradient-41);}.cls-51{fill:url(#linear-gradient-42);}.cls-52{fill:url(#linear-gradient-43);}.cls-53{fill:url(#linear-gradient-44);}.cls-54{fill:url(#linear-gradient-45);}.cls-55{fill:url(#linear-gradient-46);}.cls-56{fill:url(#linear-gradient-47);}.cls-57{fill:url(#linear-gradient-48);}.cls-58{fill:url(#linear-gradient-49);}.cls-59{fill:url(#linear-gradient-50);}.cls-60{fill:url(#linear-gradient-51);}.cls-61{fill:url(#linear-gradient-52);}.cls-62{fill:url(#linear-gradient-53);}.cls-63{fill:url(#linear-gradient-54);}.cls-64{fill:url(#linear-gradient-55);}.cls-65{fill:url(#linear-gradient-56);}.cls-66{fill:url(#linear-gradient-57);}.cls-67{fill:url(#linear-gradient-58);}.cls-68{fill:url(#linear-gradient-59);}.cls-69{fill:url(#linear-gradient-60);}.cls-70{fill:url(#linear-gradient-61);}.cls-71{fill:url(#linear-gradient-62);}.cls-72{fill:url(#linear-gradient-63);}.cls-73{fill:url(#linear-gradient-64);}.cls-74{fill:url(#linear-gradient-65);}.cls-75{fill:url(#linear-gradient-66);}.cls-76{fill:url(#linear-gradient-67);}.cls-77{fill:url(#linear-gradient-68);}.cls-78{fill:url(#linear-gradient-69);}.cls-79{fill:#e78456;}.cls-80{fill:#e992ec;}.cls-81{fill:url(#linear-gradient-70);}.cls-82{fill:url(#linear-gradient-71);}.cls-83{fill:url(#linear-gradient-72);}.cls-84{opacity:0.6;}.cls-85{fill:url(#linear-gradient-73);}.cls-86{opacity:0.78;}.cls-87{fill:url(#linear-gradient-74);}.cls-88{fill:url(#linear-gradient-75);}.cls-89{fill:url(#linear-gradient-76);}.cls-90{fill:url(#linear-gradient-77);}.cls-91{fill:url(#linear-gradient-78);}.cls-92{fill:url(#linear-gradient-79);}.cls-93{fill:url(#linear-gradient-80);}.cls-94{fill:url(#linear-gradient-81);}.cls-95{fill:url(#linear-gradient-82);}.cls-96{fill:url(#linear-gradient-83);}.cls-97{fill:url(#linear-gradient-84);}.cls-98{fill:url(#linear-gradient-85);}.cls-99{fill:url(#linear-gradient-86);}.cls-100{fill:url(#linear-gradient-87);}.cls-101{fill:url(#linear-gradient-88);}.cls-102{fill:url(#linear-gradient-89);}.cls-103{fill:url(#linear-gradient-90);}.cls-104{fill:url(#linear-gradient-91);}.cls-105{fill:url(#linear-gradient-92);}.cls-106{fill:url(#linear-gradient-93);}.cls-107{fill:url(#linear-gradient-94);}.cls-108{fill:url(#linear-gradient-95);}.cls-109{fill:url(#linear-gradient-96);}.cls-110{fill:url(#linear-gradient-97);}.cls-111{fill:url(#linear-gradient-98);}.cls-112{fill:url(#linear-gradient-99);}.cls-113{fill:url(#linear-gradient-100);}.cls-114{fill:url(#linear-gradient-101);}.cls-115{fill:url(#linear-gradient-102);}.cls-116{fill:#f2bd4a;}.cls-117{fill:url(#linear-gradient-103);}.cls-118{fill:url(#linear-gradient-104);}.cls-119{fill:url(#linear-gradient-105);}.cls-120{fill:url(#linear-gradient-106);}.cls-121{fill:url(#linear-gradient-107);}.cls-122{fill:url(#linear-gradient-108);}.cls-123{fill:url(#linear-gradient-109);}.cls-124{fill:url(#linear-gradient-110);}.cls-125{fill:url(#linear-gradient-111);}.cls-126{fill:url(#linear-gradient-112);}</style><linearGradient id="linear-gradient" x1="37.69" y1="394.61" x2="1128.04" y2="394.61" gradientUnits="userSpaceOnUse"><stop offset="0" stop-color="#b37cff"/><stop offset="1" stop-color="#f895e7"/></linearGradient><linearGradient id="linear-gradient-2" x1="13.25" y1="1487.19" x2="147.24" y2="1306.19" gradientTransform="matrix(0.98, -0.21, 0.21, 0.98, 6.13, -763.13)" gradientUnits="userSpaceOnUse"><stop offset="0" stop-color="#cb236d"/><stop offset="1" stop-color="#4c246d"/></linearGradient><linearGradient id="linear-gradient-3" x1="-4.52" y1="1341.93" x2="183.82" y2="1341.93" gradientTransform="matrix(0.98, -0.21, 0.21, 0.98, 6.13, -763.13)" gradientUnits="userSpaceOnUse"><stop offset="0" stop-color="#a737d5"/><stop offset="1" stop-color="#ef497a"/></linearGradient><linearGradient id="linear-gradient-4" x1="84.39" y1="1484.71" x2="184.39" y2="1406.71" gradientTransform="translate(-27.68 -998.78) rotate(-15.87)" xlink:href="#linear-gradient-2"/><linearGradient id="linear-gradient-5" x1="77.85" y1="510.97" x2="1124.21" y2="510.97" gradientTransform="matrix(1, 0, 0, 1, 0, 0)" xlink:href="#linear-gradient-3"/><linearGradient id="linear-gradient-6" x1="450.31" y1="422.11" x2="886.95" y2="422.11" gradientUnits="userSpaceOnUse"><stop offset="0" stop-color="#2b3582"/><stop offset="1" stop-color="#150e42"/></linearGradient><linearGradient id="linear-gradient-7" x1="778.76" y1="256.52" x2="-101.44" y2="1382.51" gradientUnits="userSpaceOnUse"><stop offset="0" stop-color="#fdf53f"/><stop offset="0.66" stop-color="#e57a58"/><stop offset="1" stop-color="#d93c65"/></linearGradient><linearGradient id="linear-gradient-8" x1="622.21" y1="581.63" x2="698.96" y2="581.63" gradientTransform="matrix(1, 0, 0, 1, 0, 0)" xlink:href="#linear-gradient-3"/><linearGradient id="linear-gradient-9" x1="796.35" y1="533.77" x2="751.6" y2="577.77" gradientTransform="matrix(1, 0, 0, 1, 0, 0)" xlink:href="#linear-gradient-3"/><linearGradient id="linear-gradient-10" x1="-7044.47" y1="533.77" x2="-7089.22" y2="577.77" gradientTransform="matrix(-1, 0, 0, 1, -6514.95, 0)" xlink:href="#linear-gradient-3"/><linearGradient id="linear-gradient-11" x1="496.99" y1="510.85" x2="697.88" y2="510.85" gradientTransform="matrix(1, 0, 0, 1, 0, 0)" xlink:href="#linear-gradient-3"/><linearGradient id="linear-gradient-12" x1="1220.26" y1="-165.16" x2="825.09" y2="156.43" gradientTransform="matrix(1, 0.09, -0.09, 1, -53.3, 265.99)" xlink:href="#linear-gradient-3"/><linearGradient id="linear-gradient-13" x1="1270.96" y1="-102.86" x2="875.79" y2="218.73" gradientTransform="matrix(1, 0.09, -0.09, 1, -53.3, 265.99)" xlink:href="#linear-gradient-3"/><linearGradient id="linear-gradient-14" x1="1277.7" y1="-94.57" x2="882.53" y2="227.02" gradientTransform="matrix(1, 0.09, -0.09, 1, -53.3, 265.99)" xlink:href="#linear-gradient-3"/><linearGradient id="linear-gradient-15" x1="1292.83" y1="-75.98" x2="897.66" y2="245.61" gradientTransform="matrix(1, 0.09, -0.09, 1, -53.3, 265.99)" xlink:href="#linear-gradient-3"/><linearGradient id="linear-gradient-16" x1="1157.37" y1="7.29" x2="692.74" y2="385.41" gradientTransform="translate(-11.96 63.42) rotate(1.17)" xlink:href="#linear-gradient-2"/><linearGradient id="linear-gradient-17" x1="1216.99" y1="80.54" x2="752.35" y2="458.67" gradientTransform="translate(-11.96 63.42) rotate(1.17)" xlink:href="#linear-gradient-2"/><linearGradient id="linear-gradient-18" x1="1224.93" y1="90.28" x2="760.28" y2="468.41" gradientTransform="translate(1257.17 -656.25) rotate(90)" xlink:href="#linear-gradient-2"/><linearGradient id="linear-gradient-19" x1="1242.72" y1="112.14" x2="778.07" y2="490.27" gradientTransform="translate(-11.96 63.42) rotate(1.17)" xlink:href="#linear-gradient-2"/><linearGradient id="linear-gradient-20" x1="638.18" y1="201.8" x2="1068.32" y2="201.8" gradientUnits="userSpaceOnUse"><stop offset="0" stop-color="#53d8ff"/><stop offset="1" stop-color="#3840f7"/></linearGradient><linearGradient id="linear-gradient-21" x1="838.1" y1="109.87" x2="1035.83" y2="109.87" xlink:href="#linear-gradient-20"/><linearGradient id="linear-gradient-22" x1="800.41" y1="76.7" x2="998.14" y2="76.7" xlink:href="#linear-gradient-20"/><linearGradient id="linear-gradient-23" x1="896.01" y1="145.05" x2="1035.83" y2="145.05" xlink:href="#linear-gradient-20"/><linearGradient id="linear-gradient-24" x1="713.01" y1="198.75" x2="1018.32" y2="198.75" xlink:href="#linear-gradient-20"/><linearGradient id="linear-gradient-25" x1="790.34" y1="233.72" x2="792.34" y2="233.72" xlink:href="#linear-gradient-20"/><linearGradient id="linear-gradient-26" x1="868.68" y1="275.56" x2="870.68" y2="275.56" xlink:href="#linear-gradient-20"/><linearGradient id="linear-gradient-27" x1="925.33" y1="257.5" x2="930.21" y2="257.5" xlink:href="#linear-gradient-20"/><linearGradient id="linear-gradient-28" x1="984.99" y1="274.27" x2="986.99" y2="274.27" xlink:href="#linear-gradient-20"/><linearGradient id="linear-gradient-29" x1="689.9" y1="220.87" x2="709.31" y2="220.87" xlink:href="#linear-gradient-20"/><linearGradient id="linear-gradient-30" x1="652.22" y1="74.5" x2="671.63" y2="74.5" xlink:href="#linear-gradient-20"/><linearGradient id="linear-gradient-31" x1="694.2" y1="307.16" x2="1030.9" y2="307.16" xlink:href="#linear-gradient-20"/><linearGradient id="linear-gradient-32" x1="656.52" y1="254.49" x2="993.22" y2="254.49" xlink:href="#linear-gradient-20"/><clipPath id="clip-path" transform="translate(-37.69 -52.68)"><rect class="cls-1" x="486.56" y="128.95" width="377.51" height="333.42"/></clipPath><linearGradient id="linear-gradient-33" x1="601.17" y1="673.36" x2="636.98" y2="673.36" xlink:href="#linear-gradient-6"/><linearGradient id="linear-gradient-34" x1="690.83" y1="631.1" x2="560.53" y2="733.42" xlink:href="#linear-gradient-20"/><linearGradient id="linear-gradient-35" x1="867.74" y1="38.75" x2="729.66" y2="181.81" xlink:href="#linear-gradient-20"/><linearGradient id="linear-gradient-36" x1="797.95" y1="127.84" x2="729.54" y2="206.21" gradientUnits="userSpaceOnUse"><stop offset="0" stop-color="#fdf53f"/><stop offset="1" stop-color="#d93c65"/></linearGradient><linearGradient id="linear-gradient-37" x1="818.9" y1="106.73" x2="782.83" y2="153.38" xlink:href="#linear-gradient-20"/><linearGradient id="linear-gradient-38" x1="553.14" y1="427.6" x2="600.9" y2="427.6" gradientUnits="userSpaceOnUse"><stop offset="0" stop-color="#f9b776"/><stop offset="1" stop-color="#f47960"/></linearGradient><linearGradient id="linear-gradient-39" x1="611.13" y1="632.58" x2="604.28" y2="692.29" xlink:href="#linear-gradient-38"/><linearGradient id="linear-gradient-40" x1="713.98" y1="660.58" x2="583.67" y2="762.9" xlink:href="#linear-gradient-20"/><linearGradient id="linear-gradient-41" x1="655.71" y1="674.31" x2="707.27" y2="674.31" xlink:href="#linear-gradient-6"/><linearGradient id="linear-gradient-42" x1="666.86" y1="638.96" x2="660.02" y2="698.68" xlink:href="#linear-gradient-38"/><linearGradient id="linear-gradient-43" x1="748.15" y1="365.92" x2="529.32" y2="705.48" gradientUnits="userSpaceOnUse"><stop offset="0" stop-color="#7c27dd"/><stop offset="1" stop-color="#2b41d9"/></linearGradient><linearGradient id="linear-gradient-44" x1="679.39" y1="221.31" x2="475.65" y2="668.4" gradientTransform="matrix(1, 0, 0, 1, 0, 0)" xlink:href="#linear-gradient-3"/><linearGradient id="linear-gradient-45" x1="776.46" y1="179.1" x2="728.83" y2="246.3" xlink:href="#linear-gradient-38"/><linearGradient id="linear-gradient-46" x1="756.3" y1="164.81" x2="708.66" y2="232.01" xlink:href="#linear-gradient-38"/><linearGradient id="linear-gradient-47" x1="626.24" y1="246.26" x2="600.12" y2="359.15" xlink:href="#linear-gradient-38"/><linearGradient id="linear-gradient-48" x1="-1157.1" y1="-824.85" x2="-1203.45" y2="-763.54" gradientTransform="translate(2015.56 -52.72) rotate(-46.73)" xlink:href="#linear-gradient-38"/><linearGradient id="linear-gradient-49" x1="-1192.49" y1="-810.13" x2="-1137.13" y2="-810.13" gradientTransform="translate(2015.56 -52.72) rotate(-46.73)" xlink:href="#linear-gradient-6"/><linearGradient id="linear-gradient-50" x1="-1224.98" y1="-776.3" x2="-1187.81" y2="-814.44" gradientTransform="translate(2015.56 -52.72) rotate(-46.73)" xlink:href="#linear-gradient-38"/><linearGradient id="linear-gradient-51" x1="604.24" y1="272.13" x2="550.16" y2="371.49" gradientTransform="matrix(1, 0, 0, 1, 0, 0)" xlink:href="#linear-gradient-3"/><linearGradient id="linear-gradient-52" x1="625.43" y1="457.09" x2="607.08" y2="489.75" xlink:href="#linear-gradient-6"/><linearGradient id="linear-gradient-53" x1="-452.44" y1="596.97" x2="-515.68" y2="697.5" gradientTransform="matrix(-1, 0, 0, 1, 539.41, 0)" xlink:href="#linear-gradient-2"/><linearGradient id="linear-gradient-54" x1="-393.48" y1="668.47" x2="-370.12" y2="692.87" gradientTransform="matrix(-1, 0, 0, 1, 539.41, 0)" xlink:href="#linear-gradient-6"/><linearGradient id="linear-gradient-55" x1="-429.54" y1="644.27" x2="-405.21" y2="552.65" gradientTransform="matrix(-1, 0, 0, 1, 539.41, 0)" xlink:href="#linear-gradient-20"/><linearGradient id="linear-gradient-56" x1="-362.49" y1="729.71" x2="-318.31" y2="762.14" gradientTransform="matrix(-1, 0, 0, 1, 539.41, 0)" xlink:href="#linear-gradient-6"/><linearGradient id="linear-gradient-57" x1="-341.38" y1="712.46" x2="-434.35" y2="636.52" gradientTransform="matrix(-1, 0, 0, 1, 539.41, 0)" xlink:href="#linear-gradient-7"/><linearGradient id="linear-gradient-58" x1="-316.16" y1="766.91" x2="-409.13" y2="690.97" gradientTransform="matrix(-1, 0, 0, 1, 539.41, 0)" xlink:href="#linear-gradient-7"/><linearGradient id="linear-gradient-59" x1="-361.86" y1="668.2" x2="-454.28" y2="703.06" gradientTransform="matrix(-1, 0, 0, 1, 539.41, 0)" xlink:href="#linear-gradient-20"/><linearGradient id="linear-gradient-60" x1="-433.88" y1="609.86" x2="-463.88" y2="645.53" gradientTransform="matrix(-1, 0, 0, 1, 539.41, 0)" xlink:href="#linear-gradient-38"/><linearGradient id="linear-gradient-61" x1="-518.24" y1="543.75" x2="-470.18" y2="712.37" gradientTransform="matrix(-1, 0, 0, 1, 539.41, 0)" xlink:href="#linear-gradient-7"/><linearGradient id="linear-gradient-62" x1="-468.86" y1="642.31" x2="-408.9" y2="560.28" gradientTransform="matrix(-1, 0, 0, 1, 539.41, 0)" xlink:href="#linear-gradient-38"/><linearGradient id="linear-gradient-63" x1="-505.54" y1="574.34" x2="-503.33" y2="554.46" gradientTransform="matrix(-1, 0, 0, 1, 539.41, 0)" xlink:href="#linear-gradient-38"/><linearGradient id="linear-gradient-64" x1="-160.67" y1="-2144.78" x2="-170.4" y2="-2176.88" gradientTransform="matrix(-0.78, -0.63, -0.63, 0.78, -450.31, 2110.07)" xlink:href="#linear-gradient-38"/><linearGradient id="linear-gradient-65" x1="-169.45" y1="-2203.73" x2="-160.4" y2="-2152.11" gradientTransform="matrix(-0.78, -0.63, -0.63, 0.78, -450.31, 2110.07)" xlink:href="#linear-gradient-6"/><linearGradient id="linear-gradient-66" x1="-170.75" y1="-2141.72" x2="-180.49" y2="-2173.83" gradientTransform="matrix(-0.78, -0.63, -0.63, 0.78, -450.31, 2110.07)" xlink:href="#linear-gradient-38"/><linearGradient id="linear-gradient-67" x1="-424.27" y1="623.75" x2="-378.65" y2="623.75" gradientTransform="matrix(-1, 0, 0, 1, 539.41, 0)" xlink:href="#linear-gradient-6"/><linearGradient id="linear-gradient-68" x1="-386.02" y1="604.4" x2="-413.79" y2="632.58" gradientTransform="matrix(-1, 0, 0, 1, 539.41, 0)" xlink:href="#linear-gradient-36"/><linearGradient id="linear-gradient-69" x1="-418.73" y1="643.7" x2="-455.22" y2="653.7" gradientTransform="matrix(-1, 0, 0, 1, 539.41, 0)" xlink:href="#linear-gradient-6"/><linearGradient id="linear-gradient-70" x1="9105.16" y1="580.67" x2="8916" y2="703.29" gradientTransform="matrix(-1, 0, 0, 1, 9352.31, 0)" xlink:href="#linear-gradient-20"/><linearGradient id="linear-gradient-71" x1="141.54" y1="576.94" x2="436.51" y2="625.66" xlink:href="#linear-gradient-20"/><linearGradient id="linear-gradient-72" x1="4370.09" y1="643.69" x2="4366.96" y2="770.08" gradientTransform="matrix(-1, 0, 0, 1, 4571.06, -52.68)" xlink:href="#linear-gradient-6"/><linearGradient id="linear-gradient-73" x1="-5518.08" y1="550.87" x2="-5776.69" y2="713.71" gradientTransform="matrix(-1, 0, 0, 1, -5407.25, 0)" xlink:href="#linear-gradient"/><linearGradient id="linear-gradient-74" x1="2181.79" y1="654.31" x2="2460.55" y2="654.31" gradientTransform="matrix(-1, 0, 0, 1, 2592.75, 0)" xlink:href="#linear-gradient-3"/><linearGradient id="linear-gradient-75" x1="8138.85" y1="441.15" x2="8055.78" y2="488.56" gradientTransform="translate(-7831.7)" xlink:href="#linear-gradient-38"/><linearGradient id="linear-gradient-76" x1="-1237.71" y1="-1688.97" x2="-1244.09" y2="-1591.2" gradientTransform="matrix(-0.9, -0.44, -0.44, 0.9, -1559.6, 1458.16)" xlink:href="#linear-gradient-2"/><linearGradient id="linear-gradient-77" x1="8130.81" y1="452.98" x2="8415.01" y2="275.06" gradientTransform="translate(-7831.7)" xlink:href="#linear-gradient-38"/><linearGradient id="linear-gradient-78" x1="-575.52" y1="-2477.07" x2="-581.89" y2="-2379.3" gradientTransform="matrix(-0.79, -0.61, -0.61, 0.79, -1692.77, 2114.63)" xlink:href="#linear-gradient-2"/><linearGradient id="linear-gradient-79" x1="176.48" y1="457.89" x2="258.48" y2="265.89" xlink:href="#linear-gradient-36"/><linearGradient id="linear-gradient-80" x1="-3921.38" y1="-15.42" x2="-3902.34" y2="32.35" gradientTransform="matrix(-1, -0.07, -0.07, 1, -3712.17, 11.24)" xlink:href="#linear-gradient-6"/><linearGradient id="linear-gradient-81" x1="8043.94" y1="350.61" x2="7848.13" y2="539.49" gradientTransform="translate(-7831.7)" xlink:href="#linear-gradient-2"/><linearGradient id="linear-gradient-82" x1="-2106.9" y1="413.82" x2="-2024.16" y2="413.82" gradientTransform="matrix(-1, 0, 0, 1, -1945.24, 0)" xlink:href="#linear-gradient-38"/><linearGradient id="linear-gradient-83" x1="-3922.24" y1="82.81" x2="-3918.09" y2="52.41" gradientTransform="matrix(-1, -0.07, -0.07, 1, -3712.17, 11.24)" xlink:href="#linear-gradient-38"/><linearGradient id="linear-gradient-84" x1="-3965.93" y1="-359.42" x2="-3927.85" y2="-427.19" gradientTransform="matrix(-0.96, -0.26, -0.26, 0.96, -3715.56, -359.91)" xlink:href="#linear-gradient-38"/><linearGradient id="linear-gradient-85" x1="-3957.74" y1="-418.44" x2="-3938.7" y2="-370.68" gradientTransform="matrix(-0.96, -0.26, -0.26, 0.96, -3715.56, -359.91)" xlink:href="#linear-gradient-6"/><linearGradient id="linear-gradient-86" x1="-3957.82" y1="-354.86" x2="-3919.74" y2="-422.64" gradientTransform="matrix(-0.96, -0.26, -0.26, 0.96, -3715.56, -359.91)" xlink:href="#linear-gradient-38"/><linearGradient id="linear-gradient-87" x1="-2163.2" y1="425.29" x2="-2206.49" y2="437.16" gradientTransform="matrix(-1, -0.05, -0.05, 1, -1974.14, -118.78)" xlink:href="#linear-gradient-6"/><linearGradient id="linear-gradient-88" x1="-2169.28" y1="384.91" x2="-2199.99" y2="417.37" gradientTransform="matrix(-1, 0, 0, 1, -1945.24, 0)" xlink:href="#linear-gradient-6"/><linearGradient id="linear-gradient-89" x1="-2187.85" y1="392.99" x2="-2201.78" y2="413.97" gradientTransform="matrix(-1, 0, 0, 1, -1945.24, 0)" xlink:href="#linear-gradient-20"/><linearGradient id="linear-gradient-90" x1="343.91" y1="644.69" x2="279.34" y2="790.83" xlink:href="#linear-gradient-7"/><linearGradient id="linear-gradient-91" x1="397.21" y1="668.24" x2="332.64" y2="814.39" xlink:href="#linear-gradient-7"/><linearGradient id="linear-gradient-92" x1="335.08" y1="730.43" x2="346.41" y2="676.05" xlink:href="#linear-gradient-7"/><linearGradient id="linear-gradient-93" x1="414.18" y1="742.77" x2="459.79" y2="742.77" gradientTransform="matrix(1, 0, 0, 1, 0, 0)" xlink:href="#linear-gradient-2"/><linearGradient id="linear-gradient-94" x1="449.32" y1="655.07" x2="436.86" y2="741.17" gradientTransform="matrix(1, 0, 0, 1, 0, 0)" xlink:href="#linear-gradient-2"/><linearGradient id="linear-gradient-95" x1="416.46" y1="729.03" x2="428.8" y2="729.03" xlink:href="#linear-gradient-38"/><linearGradient id="linear-gradient-96" x1="485.72" y1="733.73" x2="522.54" y2="733.73" gradientTransform="matrix(1, 0, 0, 1, 0, 0)" xlink:href="#linear-gradient-2"/><linearGradient id="linear-gradient-97" x1="511.05" y1="664" x2="498.59" y2="750.11" gradientTransform="matrix(1, 0, 0, 1, 0, 0)" xlink:href="#linear-gradient-2"/><linearGradient id="linear-gradient-98" x1="348.22" y1="673.34" x2="445.91" y2="673.34" xlink:href="#linear-gradient-6"/><linearGradient id="linear-gradient-99" x1="474.91" y1="730.07" x2="489.65" y2="730.07" xlink:href="#linear-gradient-38"/><linearGradient id="linear-gradient-100" x1="436.96" y1="632.64" x2="329.71" y2="754.24" xlink:href="#linear-gradient-6"/><linearGradient id="linear-gradient-101" x1="393.08" y1="522.46" x2="400.34" y2="504.14" xlink:href="#linear-gradient-38"/><linearGradient id="linear-gradient-102" x1="363.03" y1="564.08" x2="443.03" y2="695.42" xlink:href="#linear-gradient-7"/><linearGradient id="linear-gradient-103" x1="455.13" y1="593.69" x2="489.16" y2="593.69" xlink:href="#linear-gradient-38"/><linearGradient id="linear-gradient-104" x1="2319.82" y1="1034.87" x2="2283.35" y2="1062.78" gradientTransform="translate(-2019.77 -237.8) rotate(-7.5)" xlink:href="#linear-gradient-38"/><linearGradient id="linear-gradient-105" x1="2294.2" y1="1012.84" x2="2327.22" y2="1055.36" gradientTransform="translate(-2019.77 -237.8) rotate(-7.5)" xlink:href="#linear-gradient-6"/><linearGradient id="linear-gradient-106" x1="2315.29" y1="1028.96" x2="2278.82" y2="1056.86" gradientTransform="translate(-2019.77 -237.8) rotate(-7.5)" xlink:href="#linear-gradient-38"/><linearGradient id="linear-gradient-107" x1="-429.99" y1="-5142.66" x2="-521.01" y2="-5054.67" gradientTransform="matrix(-1.39, -0.07, -0.07, 1.39, -7786.78, -95.81)" gradientUnits="userSpaceOnUse"><stop offset="0" stop-color="#9cfffb"/><stop offset="1" stop-color="#9bfffa"/></linearGradient><linearGradient id="linear-gradient-108" x1="-2840.9" y1="-4859.68" x2="-2931.91" y2="-4771.69" gradientTransform="matrix(0.65, -1.23, -1.23, -0.65, 6547.72, -9410.84)" xlink:href="#linear-gradient-107"/><linearGradient id="linear-gradient-109" x1="460.84" y1="756.79" x2="467.64" y2="917.09" xlink:href="#linear-gradient-20"/><linearGradient id="linear-gradient-110" x1="507.31" y1="754.81" x2="514.1" y2="915.12" xlink:href="#linear-gradient-20"/><linearGradient id="linear-gradient-111" x1="487.11" y1="755.67" x2="493.9" y2="915.98" xlink:href="#linear-gradient-20"/><linearGradient id="linear-gradient-112" x1="479.31" y1="599.93" x2="466.78" y2="692.56" xlink:href="#linear-gradient-6"/></defs><path class="cls-2" d="M231.58,97.24C147,167.14,260.06,256.86,201.49,296s-301.15,115.56-56.87,267.1,256.64,225.14,431,129.19,156.21-86.38,299.71-21.51,293.5-36.06,242.51-155.84-83.47-118.28-25.24-194.77S1059.8,32,859.34,195.61s-325.92,41.46-347.93-19.72S365.23-13.22,231.58,97.24Z" transform="translate(-37.69 -52.68)"/><path class="cls-3" d="M501.66,734.79S481.52,574.72,384,545c-93.55-28.55-108.1,17.54-159.66-35.9a3.61,3.61,0,0,0-6.21,2.78c2.94,36.24,20.69,157.35,126.71,159.55C467.36,673.94,501.66,734.79,501.66,734.79Z" transform="translate(-37.69 -52.68)"/><path class="cls-4" d="M241.07,543.06a55.27,55.27,0,0,0,5.56,8c1.07,1.23,2.07,2.54,3.21,3.72l3.39,3.56c2.44,2.22,4.74,4.55,7.35,6.56,1.28,1,2.53,2.1,3.83,3.1l4,2.87a164.51,164.51,0,0,0,34.84,18.3c12.2,4.95,25,8.11,37.87,11l9.73,1.71c3.24.57,6.48,1.14,9.79,1.66l4.94.82,4.92.95c3.29.59,6.53,1.43,9.79,2.15,6.49,1.63,12.95,3.4,19.27,5.65,3.19,1,6.29,2.33,9.43,3.53s6.19,2.61,9.2,4.13A144,144,0,0,1,451.86,643a158.85,158.85,0,0,1,26.35,30.61c7.53,11.17,13.87,23,20.19,34.59h0a3.46,3.46,0,1,1-6.08,3.31l0,0C486.15,699.71,480.12,688,473,677.07a153.12,153.12,0,0,0-24.88-29.92,139.26,139.26,0,0,0-32.09-22c-2.89-1.52-5.89-2.8-8.86-4.16s-6-2.53-9.13-3.59c-6.13-2.3-12.44-4.15-18.77-5.85-3.2-.77-6.37-1.64-9.59-2.27l-4.83-1-4.85-.88c-3.23-.56-6.51-1.2-9.78-1.84l-9.82-1.89c-13-3.11-25.91-6.54-38.22-11.78a166,166,0,0,1-35.05-19.18c-10.72-7.91-20.76-17.11-27.46-28.94A.78.78,0,0,1,241,543h0Z" transform="translate(-37.69 -52.68)"/><g class="cls-5"><path class="cls-6" d="M511.35,740.81l-10.88-3.66C489.3,661,446.14,526.07,363.09,504.54,306.84,490,281.88,465.62,272.7,404.2c-6.11-41-25.5-66.06-37.73-78.22a3.44,3.44,0,0,1,3.27-5.78c34.24,8.66,124.61,36.61,176.89,100.58C480.58,500.86,511.35,740.81,511.35,740.81Z" transform="translate(-37.69 -52.68)"/><path class="cls-4" d="M296.88,360a84.63,84.63,0,0,1,12.56,5.17c2,1,4,2,6,3.1l2.93,1.64,1.47.82,1.42.89,5.69,3.55c1.86,1.24,3.67,2.53,5.51,3.8l2.76,1.91c.91.63,1.78,1.34,2.67,2l5.31,4.08a295.42,295.42,0,0,1,38.44,37.07l4.41,5,1.11,1.26,1,1.3,2.09,2.61,8.34,10.42,7.87,10.79,3.93,5.39c1.26,1.83,2.46,3.71,3.7,5.55l7.36,11.14c1.26,1.83,2.38,3.76,3.52,5.67l3.41,5.73,3.42,5.74,1.71,2.87c.57.95,1.14,1.91,1.65,2.9l6.28,11.78,3.14,5.89c1.06,1.95,2,4,2.94,6l5.78,12,1.45,3c.47,1,.9,2,1.35,3l2.66,6.11c1.77,4.08,3.59,8.14,5.31,12.24L469,572.92l2.46,6.2c.79,2.08,1.53,4.18,2.3,6.26l4.55,12.54c1.46,4.19,2.83,8.42,4.25,12.64l2.1,6.32c.7,2.11,1.32,4.25,2,6.37l3.9,12.75,3.63,12.83c.62,2.13,1.2,4.28,1.75,6.43l1.69,6.45c1.15,4.29,2.19,8.62,3.23,12.94.52,2.16,1.07,4.32,1.56,6.48l1.47,6.51c1.94,8.7,3.74,17.36,5.26,26.24a3.46,3.46,0,1,1-6.82,1.17V715c-1.4-8.59-3.13-17.29-5-25.89l-1.4-6.46c-.47-2.16-1-4.3-1.49-6.45-1-4.29-2-8.59-3.1-12.86l-1.62-6.41c-.53-2.14-1.08-4.27-1.68-6.4l-3.49-12.76-3.76-12.68c-.64-2.12-1.24-4.24-1.91-6.34l-2-6.29c-1.37-4.19-2.69-8.41-4.1-12.58l-4.41-12.47c-.75-2.08-1.46-4.17-2.22-6.24L463.71,575l-4.78-12.34c-1.67-4.07-3.44-8.11-5.15-12.17l-2.59-6.09c-.44-1-.85-2-1.31-3l-1.41-3-5.63-12c-1-2-1.82-4-2.86-6l-3.06-5.85-6.12-11.72c-.49-1-1.05-1.93-1.61-2.88l-1.67-2.85-3.33-5.71-3.33-5.7c-1.11-1.9-2.19-3.82-3.43-5.65L410.23,469c-1.2-1.85-2.37-3.72-3.61-5.54l-3.85-5.37-7.69-10.74-8.17-10.39-2-2.59-1-1.3-1.08-1.25-4.32-5a291.52,291.52,0,0,0-37.62-36.91l-5.19-4.06c-.87-.67-1.72-1.37-2.61-2l-2.69-1.9c-1.8-1.25-3.57-2.54-5.39-3.78l-5.55-3.52-1.39-.89-1.42-.81-2.85-1.63c-1.89-1.12-3.84-2.09-5.79-3.08s-3.94-1.87-5.92-2.79-4.06-1.66-6-2.26l-.1,0a1.63,1.63,0,0,1,1-3.12Z" transform="translate(-37.69 -52.68)"/></g><g class="cls-7"><path class="cls-8" d="M520.65,704.13a2.14,2.14,0,0,1-4.19-.18c-6.28-41.16-36.32-220.78-93.81-302.37-64.4-91.4-162.5-173.6-12-289.4a2.63,2.63,0,0,1,4.22,2.41c-1.73,13.16-2.26,44.23,23.29,74.63,33.61,40,55.58,118.23,22.35,212.2C460.48,401.42,537,636.87,520.65,704.13Z" transform="translate(-37.69 -52.68)"/><path class="cls-4" d="M396.64,147.58a59.43,59.43,0,0,0-5.72,6.39l-1.32,1.72-1.26,1.76c-.85,1.16-1.63,2.39-2.4,3.6a105.66,105.66,0,0,0-8,15.37l-1.59,4c-.54,1.34-.93,2.73-1.41,4.1-1,2.72-1.64,5.54-2.42,8.32-.39,1.39-.62,2.82-.94,4.23s-.64,2.82-.86,4.25l-.64,4.28-.33,2.14c-.1.72-.14,1.44-.21,2.16a154.08,154.08,0,0,0,.43,34.61l1.23,8.6,1.71,8.51.43,2.13.54,2.1,1.09,4.21,1.08,4.2c.39,1.4.86,2.77,1.28,4.16.88,2.76,1.73,5.53,2.63,8.28l3,8.16c.51,1.35,1,2.72,1.53,4.07l1.71,4,3.42,8c1.23,2.63,2.51,5.23,3.77,7.85l1.89,3.92.95,1.95,1,1.92,4.13,7.67,2.07,3.84c.71,1.26,1.47,2.5,2.21,3.75A515.62,515.62,0,0,0,445,399.44l0,0a3.46,3.46,0,1,1-5.47,4.25l0,0a523.15,523.15,0,0,1-38.78-59c-.72-1.29-1.47-2.55-2.17-3.85l-2-3.93-4.05-7.85-1-2-.93-2-1.85-4c-1.23-2.68-2.49-5.35-3.69-8l-3.34-8.19-1.67-4.1c-.52-1.38-1-2.78-1.48-4.17l-2.94-8.36c-.87-2.82-1.69-5.66-2.53-8.49-.41-1.41-.86-2.82-1.23-4.25l-1-4.31-1-4.31-.51-2.15-.41-2.18-1.59-8.73-1.11-8.8a157.81,157.81,0,0,1,.18-35.43c.09-.73.14-1.47.26-2.2l.37-2.19.74-4.38c.24-1.46.64-2.89.95-4.34s.61-2.89,1-4.31c.84-2.84,1.57-5.71,2.63-8.49.51-1.39.94-2.8,1.52-4.17l1.7-4.1a107.76,107.76,0,0,1,8.45-15.6A75,75,0,0,1,395.3,146a1,1,0,0,1,1.39,1.5Z" transform="translate(-37.69 -52.68)"/></g><path class="cls-9" d="M210.88,733.53S68.16,655,78.38,538.15s134.86-143.71,274-52.81c139.6,91.23,407.77,142.28,536.55,35s129-231.91,129-231.91l106.35,96.19s-31.93,286.87-424.77,270.49c0,0-98.8-.78-209.79-65.75C389,530.45,310.15,451.19,247.45,472.59c-77.33,26.39-67.75,155.7,62.7,219.73Z" transform="translate(-37.69 -52.68)"/><path class="cls-10" d="M489,97.36a32.83,32.83,0,0,0-30.66,32c-2.58,103.88-10.93,462.21-6.94,589.2A25.5,25.5,0,0,0,476,743.23c66.53,2.17,257.93,7.69,366.76,3.13a42.92,42.92,0,0,0,41.16-42c2.27-109,7.25-415.72-4.6-556.21a35,35,0,0,0-31.45-31.92C775.44,109,583,91.26,489,97.36Z" transform="translate(-37.69 -52.68)"/><path class="cls-11" d="M485.34,161.62c-3.63,85.08-15.09,368.12-11.45,472.78A29.6,29.6,0,0,0,501.76,663c62.91,3.68,224.29,11.8,316.57,4.41A33.27,33.27,0,0,0,848.88,636c4.68-86.8,18.11-350.35,14.62-453.84a32.71,32.71,0,0,0-29.8-31.47c-68.06-6.12-242.88-20.66-321.3-16.38A28.63,28.63,0,0,0,485.34,161.62Z" transform="translate(-37.69 -52.68)"/><path class="cls-12" d="M668.63,732.9a28.28,28.28,0,1,1,28.27-28.27A28.31,28.31,0,0,1,668.63,732.9Zm0-54.55a26.28,26.28,0,1,0,26.27,26.28A26.31,26.31,0,0,0,668.63,678.35Z" transform="translate(-37.69 -52.68)"/><path class="cls-13" d="M622.74,115.51h0a6,6,0,0,0,5.67,6c15.71.82,60,3.15,79.77,4.29a6,6,0,0,0,6.22-7.11l-.13-.66a6,6,0,0,0-5.33-4.83c-13.37-1.22-53.72-4.62-80.46-3.67A6,6,0,0,0,622.74,115.51Z" transform="translate(-37.69 -52.68)"/><path class="cls-4" d="M498.43,182.11c4,51.85,14.62,218.79,17.65,266.44a13.83,13.83,0,0,0,13.65,13l285.43,3.37a13.86,13.86,0,0,0,14-13.12L842.8,193.48a13.83,13.83,0,0,0-13.31-14.56L512.74,167.23A13.83,13.83,0,0,0,498.43,182.11Z" transform="translate(-37.69 -52.68)"/><path class="cls-14" d="M699,581.63a36.61,36.61,0,0,1-36.6,36.61c-20.22,0-40.15-15.33-40.15-35.55S642.14,545,662.36,545A36.6,36.6,0,0,1,699,581.63Z" transform="translate(-37.69 -52.68)"/><path class="cls-4" d="M655.7,604.15h0a4.87,4.87,0,0,1-4.81-4.35L647.59,569a4.86,4.86,0,0,1,5.21-5.36l3.3.25a4.86,4.86,0,0,1,4.48,4.85v30.58A4.86,4.86,0,0,1,655.7,604.15Z" transform="translate(-37.69 -52.68)"/><path class="cls-4" d="M666.18,568.24v31.08a4.86,4.86,0,0,0,4.8,4.86h.78a4.85,4.85,0,0,0,4.91-4.69l1.13-31.08a4.87,4.87,0,0,0-4.86-5H671A4.86,4.86,0,0,0,666.18,568.24Z" transform="translate(-37.69 -52.68)"/><path class="cls-15" d="M776.05,581.63a27.89,27.89,0,0,1-27.89,27.89c-15.41,0-30.59-11.67-30.59-27.08s15.18-28.7,30.59-28.7A27.89,27.89,0,0,1,776.05,581.63Z" transform="translate(-37.69 -52.68)"/><path class="cls-4" d="M736.6,569.62v24.85a3.88,3.88,0,0,0,3.84,3.88h.63a3.89,3.89,0,0,0,3.93-3.75l.89-24.85a3.89,3.89,0,0,0-3.88-4h-1.52A3.89,3.89,0,0,0,736.6,569.62Z" transform="translate(-37.69 -52.68)"/><path class="cls-4" d="M751.55,568.79l-1.32,26a2.08,2.08,0,0,0,3.57,1.55l12.59-12.94a2.08,2.08,0,0,0,.08-2.81l-11.26-13.07A2.09,2.09,0,0,0,751.55,568.79Z" transform="translate(-37.69 -52.68)"/><path class="cls-16" d="M549.82,581.63a27.89,27.89,0,0,0,27.9,27.89c15.4,0,30.59-11.67,30.59-27.08s-15.19-28.7-30.59-28.7A27.9,27.9,0,0,0,549.82,581.63Z" transform="translate(-37.69 -52.68)"/><path class="cls-4" d="M589.27,569.62v24.85a3.88,3.88,0,0,1-3.84,3.88h-.62a3.89,3.89,0,0,1-3.93-3.75l-.9-24.85a3.89,3.89,0,0,1,3.88-4h1.53A3.89,3.89,0,0,1,589.27,569.62Z" transform="translate(-37.69 -52.68)"/><path class="cls-4" d="M574.32,568.79l1.32,26a2.08,2.08,0,0,1-3.57,1.55l-12.58-12.94a2.09,2.09,0,0,1-.09-2.81l11.26-13.07A2.09,2.09,0,0,1,574.32,568.79Z" transform="translate(-37.69 -52.68)"/><path class="cls-4" d="M497,509.81l.33,3.23a5.79,5.79,0,0,0,5.76,5.22h313a5.8,5.8,0,0,0,5.79-5.8h0a5.79,5.79,0,0,0-5.73-5.79l-313.34-3.23A5.8,5.8,0,0,0,497,509.81Z" transform="translate(-37.69 -52.68)"/><path class="cls-17" d="M697.34,514.55c-.36-3-.81-6.06-1.24-9.12l-193.25-2a5.8,5.8,0,0,0-5.83,6.37l.33,3.23a5.79,5.79,0,0,0,5.76,5.22H697.88C697.68,517,697.49,515.71,697.34,514.55Z" transform="translate(-37.69 -52.68)"/><circle class="cls-18" cx="698.89" cy="511.55" r="10.47" transform="translate(44.32 1066.8) rotate(-80.78)"/><path class="cls-19" d="M1110.08,468.44l-269.25-23.9a21.23,21.23,0,0,1-19.36-21l-1-181.54a21.23,21.23,0,0,1,22.71-21.31L1129.9,240.6a21.25,21.25,0,0,1,19.68,23.07l-16.46,185.49A21.25,21.25,0,0,1,1110.08,468.44Z" transform="translate(-37.69 -52.68)"/><path class="cls-20" d="M836.26,259.53l-1.78,156.75a13.13,13.13,0,0,0,11.84,13.22l258.18,25.64a13.13,13.13,0,0,0,14.38-11.91l14.88-167.6a13.13,13.13,0,0,0-12.37-14.28L850.11,246.56A13.15,13.15,0,0,0,836.26,259.53Z" transform="translate(-37.69 -52.68)"/><path class="cls-21" d="M958.65,396.48l146.12,8.57a2.66,2.66,0,0,1,2.49,2.9l-.2,2.34a2.66,2.66,0,0,1-2.85,2.42L958.3,401.79a2.66,2.66,0,0,1-2.45-2.89h0A2.66,2.66,0,0,1,958.65,396.48Z" transform="translate(-37.69 -52.68)"/><path class="cls-22" d="M954.77,411.12l-.09,1a2.66,2.66,0,0,0,2.41,2.88l145.73,12.94a2.66,2.66,0,0,0,2.88-2.42l.09-1a2.66,2.66,0,0,0-2.41-2.88L957.65,408.7A2.66,2.66,0,0,0,954.77,411.12Z" transform="translate(-37.69 -52.68)"/><path class="cls-23" d="M997.84,428.11l0,.44a2.66,2.66,0,0,0,2.41,2.88l101.5,9a2.65,2.65,0,0,0,2.88-2.41l.19-2.07a2.67,2.67,0,0,0-2.46-2.89l-101.64-7.38A2.66,2.66,0,0,0,997.84,428.11Z" transform="translate(-37.69 -52.68)"/><path class="cls-24" d="M1087.51,403.58l-317.76-6.47A25,25,0,0,1,745.35,374l-15.7-212.87a25,25,0,0,1,24.94-26.81l337.92.44a25,25,0,0,1,24.93,25.48L1113,379.12A25,25,0,0,1,1087.51,403.58Z" transform="translate(-37.69 -52.68)"/><path class="cls-20" d="M749.58,180.46l10.46,184A15.45,15.45,0,0,0,775,379l304.92,9.4a15.43,15.43,0,0,0,15.91-15.12l4-197.8a15.45,15.45,0,0,0-15.65-15.76l-319.4,4.39A15.44,15.44,0,0,0,749.58,180.46Z" transform="translate(-37.69 -52.68)"/><path class="cls-25" d="M904.12,331.3l172.08-1.64a3.12,3.12,0,0,1,3.16,3.19l-.06,2.77a3.12,3.12,0,0,1-3.14,3.06l-172-1.12a3.12,3.12,0,0,1-3.11-3.19h0A3.13,3.13,0,0,1,904.12,331.3Z" transform="translate(-37.69 -52.68)"/><rect class="cls-26" x="986.11" y="262.05" width="7.44" height="178.27" rx="3.13" transform="translate(580.91 1281) rotate(-88.84)"/><path class="cls-27" d="M952.61,365.26v.52a3.13,3.13,0,0,0,3.07,3.19l119.78,2.44a3.13,3.13,0,0,0,3.19-3.06l0-2.44a3.14,3.14,0,0,0-3.12-3.19l-119.82-.52A3.14,3.14,0,0,0,952.61,365.26Z" transform="translate(-37.69 -52.68)"/><path class="cls-28" d="M1040.62,350.92H688.1a27.7,27.7,0,0,1-27.58-25.1L638.3,90.11a27.7,27.7,0,0,1,27.05-30.29l374.74-7.14a27.71,27.71,0,0,1,28.23,27.7V323.22A27.7,27.7,0,0,1,1040.62,350.92Z" transform="translate(-37.69 -52.68)"/><path class="cls-20" d="M660.83,111.12l15.76,203.82a17.13,17.13,0,0,0,16.9,15.81l338.34,3.55a17.13,17.13,0,0,0,17.31-17.13V97.73a17.13,17.13,0,0,0-17.71-17.12L677.33,92.68A17.14,17.14,0,0,0,660.83,111.12Z" transform="translate(-37.69 -52.68)"/><path class="cls-29" d="M841.46,109.25l190.8-5.7a3.47,3.47,0,0,1,3.57,3.47v3.07a3.47,3.47,0,0,1-3.42,3.47l-190.8,2.63a3.46,3.46,0,0,1-3.51-3.47h0A3.48,3.48,0,0,1,841.46,109.25Z" transform="translate(-37.69 -52.68)"/><rect class="cls-30" x="800.41" y="72.57" width="197.73" height="8.25" rx="3.47"/><path class="cls-31" d="M896,145.82v.58a3.47,3.47,0,0,0,3.47,3.47h132.88a3.47,3.47,0,0,0,3.47-3.47v-2.7a3.47,3.47,0,0,0-3.52-3.47l-132.89,2.12A3.47,3.47,0,0,0,896,145.82Z" transform="translate(-37.69 -52.68)"/><path class="cls-32" d="M985.25,250.56a1.48,1.48,0,0,1-1-.34L927,203.69l-56.46,41.36a1.51,1.51,0,0,1-2-.25L790,150.58c-8.93,7.83-66.79,58.56-74.49,65.3a1.5,1.5,0,1,1-2-2.26c8.36-7.3,75.65-66.31,75.65-66.31a1.52,1.52,0,0,1,1.11-.37,1.5,1.5,0,0,1,1,.54l78.62,94.31,56.26-41.2a1.5,1.5,0,0,1,1.83,0l57.19,46.46,30.62-26.77a1.5,1.5,0,0,1,2,2.26l-31.57,27.6A1.56,1.56,0,0,1,985.25,250.56Z" transform="translate(-37.69 -52.68)"/><path class="cls-33" d="M791.34,301.22a1,1,0,0,1-1-1v-3a1,1,0,1,1,2,0v3A1,1,0,0,1,791.34,301.22Zm0-10a1,1,0,0,1-1-1v-3a1,1,0,1,1,2,0v3A1,1,0,0,1,791.34,291.22Zm0-10a1,1,0,0,1-1-1v-3a1,1,0,1,1,2,0v3A1,1,0,0,1,791.34,281.22Zm0-10a1,1,0,0,1-1-1v-3a1,1,0,1,1,2,0v3A1,1,0,0,1,791.34,271.22Zm0-10a1,1,0,0,1-1-1v-3a1,1,0,1,1,2,0v3A1,1,0,0,1,791.34,261.22Zm0-10a1,1,0,0,1-1-1v-3a1,1,0,1,1,2,0v3A1,1,0,0,1,791.34,251.22Zm0-10a1,1,0,0,1-1-1v-3a1,1,0,1,1,2,0v3A1,1,0,0,1,791.34,241.22Zm0-10a1,1,0,0,1-1-1v-3a1,1,0,0,1,2,0v3A1,1,0,0,1,791.34,231.22Zm0-10a1,1,0,0,1-1-1v-3a1,1,0,0,1,2,0v3A1,1,0,0,1,791.34,221.22Zm0-10a1,1,0,0,1-1-1v-3a1,1,0,0,1,2,0v3A1,1,0,0,1,791.34,211.22Zm0-10a1,1,0,0,1-1-1v-3a1,1,0,0,1,2,0v3A1,1,0,0,1,791.34,201.22Zm0-10a1,1,0,0,1-1-1v-3a1,1,0,0,1,2,0v3A1,1,0,0,1,791.34,191.22Zm0-10a1,1,0,0,1-1-1v-3a1,1,0,0,1,2,0v3A1,1,0,0,1,791.34,181.22Zm0-10a1,1,0,0,1-1-1v-3a1,1,0,0,1,2,0v3A1,1,0,0,1,791.34,171.22Z" transform="translate(-37.69 -52.68)"/><path class="cls-34" d="M869.68,303.06a1,1,0,0,1-1-1v-3a1,1,0,0,1,2,0v3A1,1,0,0,1,869.68,303.06Zm0-10a1,1,0,0,1-1-1v-3a1,1,0,0,1,2,0v3A1,1,0,0,1,869.68,293.06Zm0-10a1,1,0,0,1-1-1v-3a1,1,0,0,1,2,0v3A1,1,0,0,1,869.68,283.06Zm0-10a1,1,0,0,1-1-1v-3a1,1,0,0,1,2,0v3A1,1,0,0,1,869.68,273.06Zm0-10a1,1,0,0,1-1-1v-3a1,1,0,0,1,2,0v3A1,1,0,0,1,869.68,263.06Zm0-10a1,1,0,0,1-1-1v-3a1,1,0,0,1,2,0v3A1,1,0,0,1,869.68,253.06Z" transform="translate(-37.69 -52.68)"/><path class="cls-35" d="M929.21,305a1,1,0,0,1-1-1l-.1-3a1,1,0,0,1,1-1,1,1,0,0,1,1,1l.09,3a1,1,0,0,1-1,1Zm-.31-10a1,1,0,0,1-1-1l-.09-3a1,1,0,1,1,2-.06l.09,3a1,1,0,0,1-1,1Zm-.31-10a1,1,0,0,1-1-1l-.09-3a1,1,0,1,1,2-.06l.09,3a1,1,0,0,1-1,1Zm-.31-10a1,1,0,0,1-1-1l-.09-3a1,1,0,0,1,1-1,1,1,0,0,1,1,1l.09,3a1,1,0,0,1-1,1ZM928,265a1,1,0,0,1-1-1l-.09-3a1,1,0,0,1,1-1,1,1,0,0,1,1,1l.09,3a1,1,0,0,1-1,1Zm-.31-10a1,1,0,0,1-1-1l-.09-3a1,1,0,0,1,2-.06l.09,3a1,1,0,0,1-1,1Zm-.31-10a1,1,0,0,1-1-1l-.09-3a1,1,0,1,1,2-.06l.09,3a1,1,0,0,1-1,1ZM927,235a1,1,0,0,1-1-1l-.09-3a1,1,0,0,1,1-1,1,1,0,0,1,1,1l.09,3a1,1,0,0,1-1,1Zm-.31-10a1,1,0,0,1-1-1l-.09-3a1,1,0,0,1,1-1,1,1,0,0,1,1,1l.09,3a1,1,0,0,1-1,1Zm-.31-10a1,1,0,0,1-1-1l-.09-3a1,1,0,0,1,1-1,1,1,0,0,1,1,1l.09,3a1,1,0,0,1-1,1Z" transform="translate(-37.69 -52.68)"/><path class="cls-36" d="M986,296.77a1,1,0,0,1-1-1v-3a1,1,0,0,1,2,0v3A1,1,0,0,1,986,296.77Zm0-10a1,1,0,0,1-1-1v-3a1,1,0,0,1,2,0v3A1,1,0,0,1,986,286.77Zm0-10a1,1,0,0,1-1-1v-3a1,1,0,0,1,2,0v3A1,1,0,0,1,986,276.77Zm0-10a1,1,0,0,1-1-1v-3a1,1,0,0,1,2,0v3A1,1,0,0,1,986,266.77Zm0-10a1,1,0,0,1-1-1v-3a1,1,0,1,1,2,0v3A1,1,0,0,1,986,256.77Z" transform="translate(-37.69 -52.68)"/><path class="cls-37" d="M707.81,317.55a1.49,1.49,0,0,1-1.49-1.38L690.2,125.82a1.5,1.5,0,1,1,3-.26l16.12,190.36a1.5,1.5,0,0,1-1.37,1.62Z" transform="translate(-37.69 -52.68)"/><polygon class="cls-38" points="649.44 79.39 654.08 73.89 659.58 78.54 659.22 74.23 653.72 69.59 649.08 75.09 649.44 79.39"/><path class="cls-39" d="M1026,308.66H695.7a1.5,1.5,0,0,1,0-3H1026a1.5,1.5,0,0,1,0,3Z" transform="translate(-37.69 -52.68)"/><polygon class="cls-40" points="982.31 259.57 987.4 254.49 982.31 249.4 986.63 249.4 991.72 254.49 986.63 259.57 982.31 259.57"/><g class="cls-41"><path class="cls-42" d="M637,686.11a2.79,2.79,0,0,0-.08-.81c-4-16-24.06-26-24.06-26l-7.93.63c-4.56,14.09-4,22.74-3.24,26.59a2.81,2.81,0,0,0,.08.31A187.85,187.85,0,0,0,637,686.11Z" transform="translate(-37.69 -52.68)"/><path class="cls-43" d="M601.75,686.87a3.44,3.44,0,0,0,2.52,2.55c9.31,2,24.1.38,30.32-.43a2.89,2.89,0,0,0,2.39-2.88A187.85,187.85,0,0,1,601.75,686.87Z" transform="translate(-37.69 -52.68)"/><path class="cls-44" d="M717.39,170.64l52.26-19,4,8.43L723.44,179S716.46,178.41,717.39,170.64Z" transform="translate(-37.69 -52.68)"/><path class="cls-45" d="M769.65,151.67c-1.54,4.66,4,8.43,4,8.43l9.48-6.71a18.65,18.65,0,0,1-1-3.69Z" transform="translate(-37.69 -52.68)"/><path class="cls-46" d="M782.16,149.7a18.65,18.65,0,0,0,1,3.69l7-4.95Z" transform="translate(-37.69 -52.68)"/><path class="cls-47" d="M570.33,403c-4.9,5.23-12.12,9.75-17.19,12.57,7.58,9.37,17.84,18.75,31.42,27.94l3.89,8.72L600.9,437.3S578.55,426.17,570.33,403Z" transform="translate(-37.69 -52.68)"/><path class="cls-48" d="M601.72,648.15l3.36,16.18a2.65,2.65,0,0,0,2.26,2.17,22.49,22.49,0,0,0,5.21-.08,3.33,3.33,0,0,0,2.63-3.91l-2.34-14.36Z" transform="translate(-37.69 -52.68)"/><path class="cls-49" d="M671.34,686.71c-8.76-.24-13.29-1.28-15.63-2.23,0,.87,0,1.75,0,2.67a1.73,1.73,0,0,0,1.65,1.76l48.12-.31a2.2,2.2,0,0,0,1.77-3.2C701,685.92,684.89,687.09,671.34,686.71Z" transform="translate(-37.69 -52.68)"/><path class="cls-50" d="M707.27,685.4a2.16,2.16,0,0,0-.2-.36c-4.24-5.94-15.07-17.76-36.45-22.89l-10.26-.32s-4.57,7.94-4.65,22.65c2.34.95,6.87,2,15.63,2.23C684.89,687.09,701,685.92,707.27,685.4Z" transform="translate(-37.69 -52.68)"/><path class="cls-51" d="M658.46,646.28c.11.77,1.52,12.39,2.06,16.9a2.23,2.23,0,0,0,1.89,2,23.31,23.31,0,0,0,7-.11,3,3,0,0,0,2.3-3V643.79Z" transform="translate(-37.69 -52.68)"/><path class="cls-52" d="M650.23,434.19s24.74,94,24.29,212.36a4.58,4.58,0,0,1-3.63,4.47,53.44,53.44,0,0,1-11.47,1.32,4.24,4.24,0,0,1-4-3.55c-3.47-20.34-23.38-135-34.72-153.57,0,0-7.47,102.09-5.08,155a2.51,2.51,0,0,1-2.22,2.61,42.18,42.18,0,0,1-9.21,0,3.36,3.36,0,0,1-3-2.85c-2.47-17.22-16.69-119.71-16.09-193.55,0-4.16,11-22.26,11-22.26Z" transform="translate(-37.69 -52.68)"/><path class="cls-53" d="M731.14,231.69c-10.86,20.22-28.89,40.85-58.23,46.38-27.08,5.1-75.71,11.41-95.25,13.87a23.94,23.94,0,0,0-15.13,8.12c-15.36,17.78-49.07,66.45-9.39,115.5,5.07-2.82,12.29-7.34,17.19-12.57-4.39-12.38-4.75-28.19,4.45-47.58A44.64,44.64,0,0,0,576,360c12.68,40.17,13.36,73.6,13.33,81.31a2.55,2.55,0,0,0,1.6,2.37c16.69,6.69,48.81,2.71,59.59,1.1a3.62,3.62,0,0,0,3-4.11c-5.3-38.34,21.86-101.42,29-117.22a10.49,10.49,0,0,1,5.21-5.21c41-18.56,58.86-47.12,66.09-72.86C747.59,237,737.9,233.28,731.14,231.69Z" transform="translate(-37.69 -52.68)"/><path class="cls-54" d="M753.85,245.34c8.76-31.19,1.94-58.22,1.94-58.22h-9.34a151.35,151.35,0,0,1-15.31,44.57C737.9,233.28,747.59,237,753.85,245.34Z" transform="translate(-37.69 -52.68)"/><path class="cls-55" d="M749.74,192.09s-14.23-18.43-9.61-28,20.47-8.66,20.47-8.66l2.23,7.52a9.5,9.5,0,0,1-.23,6l-8.75,23.14Z" transform="translate(-37.69 -52.68)"/><path class="cls-56" d="M606.5,255.05l-3.22,32.86s18.49,5.57,31.93-3.92l-9.45-29.86Z" transform="translate(-37.69 -52.68)"/><path class="cls-57" d="M628,217.6c.44.42,18.78,36.42,18.78,36.42l-20.78,10-22.44-31.54S620.5,210.59,628,217.6Z" transform="translate(-37.69 -52.68)"/><path class="cls-58" d="M612.7,233.38a3.34,3.34,0,0,0,.25,2.92l10.36,17.27a3.23,3.23,0,0,0,.57.71c1.23,1.14,5.45,4.48,8.72-.06,2.78-3.88,5.39-7.4,8.18-8.85a3.31,3.31,0,0,1,4.47,1.47,122.22,122.22,0,0,1,7.09,16.82,3.29,3.29,0,0,1-1.92,4c-4.2,1.7-12.52,4.78-19.9,5.8a3.3,3.3,0,0,1-3.13-1.33c-3.17-4.35-12.12-16.5-15.17-19.54-2.84-2.83-8.08-1.77-10.44-1.09a3.3,3.3,0,0,1-2.64-.34c-2.4-1.45-6.58-5-2.75-11.12a3.31,3.31,0,0,0-1-4.5c-2.67-1.76-5.57-5.06-2.81-10.4s7.79-5.9,11.19-5.48a3.46,3.46,0,0,0,3.62-2,2.18,2.18,0,0,1,1.71-1.35,3.22,3.22,0,0,0,2.6-3.78c-.6-3.06-.15-7,4.74-9.72,9-4.93,16.82,3.1,18.81,9.88s-8,11.57-14.33,12.37C616.26,225.69,613.72,230.74,612.7,233.38Z" transform="translate(-37.69 -52.68)"/><path class="cls-59" d="M616.11,259s-4-11.67-9.09-11.24-9.12,5.51-2.8,11.23C612.09,266.08,616.11,259,616.11,259Z" transform="translate(-37.69 -52.68)"/><path class="cls-60" d="M573.1,352.4c-6.73-18.4-4.29-40.63-4.26-40.85l1.85.21c0,.22-2.41,22,4.16,40Z" transform="translate(-37.69 -52.68)"/><path class="cls-61" d="M619.74,492.82a.93.93,0,0,1-.91-.69c-2.05-7.92-17.41-16.61-17.57-16.7a.92.92,0,0,1-.35-1.27.93.93,0,0,1,1.27-.36c.66.37,16.21,9.18,18.46,17.86a.92.92,0,0,1-.67,1.13A.63.63,0,0,1,619.74,492.82Z" transform="translate(-37.69 -52.68)"/></g><path class="cls-62" d="M1112.29,556.9s23.87,13.23,25.85,35.61.16,115.29-47.71,138.15-111.25,17.6-135.5,15.1-37.71-19-40.71-30.34-7.86-53.63,17.66-67.27,52.31-34.53,79.1-54.88S1083.65,539.71,1112.29,556.9Z" transform="translate(-37.69 -52.68)"/><path class="cls-63" d="M939.4,655.87s6.44.34,7.23,13.6c0,0-14.94,13.39-35.12,16.58-1.52.24,2.12-10.34,2.66-11.78C916.77,667.45,925,663.06,939.4,655.87Z" transform="translate(-37.69 -52.68)"/><path class="cls-64" d="M1012,640.28h-13.6s-41.73-46.09-69.11-50.74c0,0-19,24.32,1,69.77a6.64,6.64,0,0,0,9.5,3.13,5.53,5.53,0,0,0,2.17-2.59l-1.62-38.8s35.6,31.13,41.79,37.14S1019.76,660.54,1012,640.28Z" transform="translate(-37.69 -52.68)"/><path class="cls-65" d="M880.51,737.06a51.11,51.11,0,0,1,27.88-12.21l4.44,2.71a48.59,48.59,0,0,1-8,8.58c-4.75,2.75-12.08,6.49-18.15,7.3C880.78,744.22,879.91,740.65,880.51,737.06Z" transform="translate(-37.69 -52.68)"/><path class="cls-66" d="M914.17,674.27c3.51,1.14,5.06,6.11,14,2.82a78.9,78.9,0,0,0,18.32-9.65c.07.64.13,1.31.18,2,0,0-15.76,15-35.94,18.17a2,2,0,0,1-2.17-2.71A50.7,50.7,0,0,1,914.17,674.27Z" transform="translate(-37.69 -52.68)"/><path class="cls-67" d="M876.22,741.32a45.5,45.5,0,0,1,4.29-4.26c-.6,3.59.27,7.16,6.18,6.38,6.07-.81,13.4-4.55,18.15-7.3-6,5.07-15,10.45-26.42,10.14A3,3,0,0,1,876.22,741.32Z" transform="translate(-37.69 -52.68)"/><path class="cls-68" d="M1011.47,650.12l-63.67.69s-36.37,30.09-43,76c0,0-1.1,3.38,5.47,4A126.29,126.29,0,0,0,946.64,691c17.57-31.13,52.4-17.12,52.4-17.12,11.44-8.25,27.61-9.93,39.79-12.68Z" transform="translate(-37.69 -52.68)"/><path class="cls-69" d="M1010,598.83s-6.86,34.35-40.44,47.94l-11.95-1.41-2.82,4.5,28,.89a76.65,76.65,0,0,0,36.65-35.34C1019.85,614.55,1026.84,600.12,1010,598.83Z" transform="translate(-37.69 -52.68)"/><path class="cls-70" d="M1006.3,649.56s7.79-21.19,9.47-41.78a91.34,91.34,0,0,0-9.27-7,2.57,2.57,0,0,1-1-3.34c2.62-5.43,18.47-26.74,19.66-27,6.45-1.61,32.91-14.19,51.55,11.3,8,10.94-1.58,44.62-37.87,79.5l-7.49,1.44Z" transform="translate(-37.69 -52.68)"/><path class="cls-71" d="M1036.33,612.42s-21.66,25.65-49.34,29.4c0,0-7.16-6.53-12.48-4.2s-12.62,12.61-12.62,12.61h35.55s33.62-1.18,50.42-21.57C1046.51,621.53,1042.46,617.27,1036.33,612.42Z" transform="translate(-37.69 -52.68)"/><path class="cls-72" d="M1049,552.39l4.74,15.81a1.77,1.77,0,0,1-.68,1.94,17.65,17.65,0,0,1-16.42,1.65,2.58,2.58,0,0,1-1.66-2.22l-1.12-13.77Z" transform="translate(-37.69 -52.68)"/><path class="cls-73" d="M1029,526s-8.52,14.18-6.82,22.06,13.61,12.67,24.62,5.7l6.92-21.59Z" transform="translate(-37.69 -52.68)"/><path class="cls-74" d="M1045.82,543.39a.81.81,0,0,1-.41-1.17,21.33,21.33,0,0,0,2.62-6.3s1.82-1.29-4.91-2.58-16.77-3.3-19.12-8.87,2.42-19.56,11.46-8.89a.8.8,0,0,0,1.28-.05c1.31-1.88,4.81-5.83,10-3.78,4.88,1.92,5.57,5.4,5.59,7.17a.81.81,0,0,0,1,.78c2.4-.58,8.17-1.24,11.15,4.58,2.45,4.79,1.13,7.63-.12,9a.81.81,0,0,0,.4,1.33c1.61.41,3.72,1.66,3.69,5.39,0,5.15-5.81,5-7.46,4.8a.84.84,0,0,0-.71.29c-1.33,1.62-7.34,8.5-14.14,9.61a.82.82,0,0,1-.91-1l2.56-8.74a.82.82,0,0,0-.48-1Z" transform="translate(-37.69 -52.68)"/><path class="cls-75" d="M1044.68,544.67s7.2-5.45,8-1.18-6.41,6.53-10.07,5.1Z" transform="translate(-37.69 -52.68)"/><path class="cls-76" d="M963.68,652.22l-16-53.23a5.43,5.43,0,0,0-4.85-3.87l-21.55-1.48a3.06,3.06,0,0,0-3.09,4.07l17.85,50.84a4.48,4.48,0,0,0,3.77,3l21.22,2.35Z" transform="translate(-37.69 -52.68)"/><path class="cls-77" d="M934.24,617c1.19,2.4,3.25,3.81,4.6,3.15s1.47-3.16.28-5.57-3.25-3.81-4.6-3.15S933.05,614.62,934.24,617Z" transform="translate(-37.69 -52.68)"/><path class="cls-78" d="M961.07,653.87h.1l45.23-2.29a2,2,0,1,0-.21-4L961,649.82a2,2,0,0,0,.1,4Z" transform="translate(-37.69 -52.68)"/><path class="cls-79" d="M1015.77,608.28a.5.5,0,0,1-.5-.5c0-9.57,3.65-22.23,3.68-22.36a.51.51,0,0,1,.62-.34.5.5,0,0,1,.34.62c0,.13-3.68,12.65-3.64,22.08a.51.51,0,0,1-.5.5Z" transform="translate(-37.69 -52.68)"/><path class="cls-79" d="M1036.33,612.92a.5.5,0,0,1-.31-.1.52.52,0,0,1-.08-.71c.1-.12,9.91-12.6,13.27-21.1a.5.5,0,0,1,.93.37c-3.41,8.64-13.32,21.23-13.41,21.35A.5.5,0,0,1,1036.33,612.92Z" transform="translate(-37.69 -52.68)"/><path class="cls-79" d="M1050.2,632.18l-1.87-2.65a.5.5,0,1,1,.81-.58l1.41,2c13.8-6.14,22.35-22.65,22.44-22.82a.49.49,0,0,1,.67-.22.5.5,0,0,1,.22.67c-.09.18-9,17.31-23.31,23.45Z" transform="translate(-37.69 -52.68)"/><path class="cls-80" d="M183.41,660l-2.49-1.74a1.71,1.71,0,0,1,2-2.8h0l0,0,2.42,1.71,0,0a1.7,1.7,0,0,1-2,2.78Z" transform="translate(-37.69 -52.68)"/><path class="cls-80" d="M175.27,654,172.91,652a1.73,1.73,0,0,1,2.18-2.69h0l0,0,2.29,1.88,0,0a1.74,1.74,0,0,1,.24,2.43A1.72,1.72,0,0,1,175.27,654Z" transform="translate(-37.69 -52.68)"/><path class="cls-80" d="M167.57,647.38l-2.22-2.08a1.75,1.75,0,0,1,2.4-2.56h0l0,0,2.16,2,0,0a1.75,1.75,0,1,1-2.39,2.55Z" transform="translate(-37.69 -52.68)"/><path class="cls-80" d="M160.35,640.29l-2.07-2.22a1.78,1.78,0,1,1,2.6-2.43h0l0,0,2,2.18,0,0a1.77,1.77,0,0,1-2.6,2.41Z" transform="translate(-37.69 -52.68)"/><path class="cls-80" d="M153.63,632.72l-1.92-2.36a1.81,1.81,0,0,1,2.81-2.28h0l0,0,1.85,2.31,0,0a1.8,1.8,0,0,1-2.8,2.26Z" transform="translate(-37.69 -52.68)"/><path class="cls-80" d="M147.45,624.7l-1.75-2.49a1.83,1.83,0,1,1,3-2.1h0l0,0,1.69,2.43,0,0a1.82,1.82,0,0,1-3,2.09Z" transform="translate(-37.69 -52.68)"/><path class="cls-80" d="M141.84,616.26l-1.56-2.61a1.85,1.85,0,1,1,3.18-1.9h0l0,0,1.51,2.54,0,0a1.85,1.85,0,0,1-3.18,1.89Z" transform="translate(-37.69 -52.68)"/><path class="cls-80" d="M136.85,607.44l-1.37-2.71a1.89,1.89,0,0,1,.84-2.53,1.87,1.87,0,0,1,2.52.83h0v0l1.32,2.64,0,0a1.87,1.87,0,0,1-3.35,1.68Z" transform="translate(-37.69 -52.68)"/><path class="cls-80" d="M132.52,598.27l-1.16-2.81a1.91,1.91,0,1,1,3.52-1.46h0l0,0,1.11,2.74,0,0a1.9,1.9,0,0,1-3.51,1.44Z" transform="translate(-37.69 -52.68)"/><path class="cls-80" d="M128.89,588.8l-.95-2.89a1.93,1.93,0,0,1,3.67-1.2h0l0,0,.9,2.81,0,0a1.92,1.92,0,0,1-3.66,1.18Z" transform="translate(-37.69 -52.68)"/><path class="cls-80" d="M126,579.07l-.71-3a2,2,0,1,1,3.8-.91h0v0l.68,2.87v0a1.95,1.95,0,0,1-3.79.9Z" transform="translate(-37.69 -52.68)"/><path class="cls-80" d="M123.9,569.13l-.46-3a2,2,0,1,1,3.91-.61h0v.05l.44,2.91v0a2,2,0,0,1-3.9.59Z" transform="translate(-37.69 -52.68)"/><path class="cls-80" d="M122.64,559.06l-.21-3a2,2,0,1,1,4-.28h0v.06l.19,2.94v0a2,2,0,0,1-4,.27Z" transform="translate(-37.69 -52.68)"/><path class="cls-80" d="M122.25,548.89l.06-3.06a2,2,0,0,1,4.06.09h0V546l-.08,2.95V549a2,2,0,0,1-4-.09Z" transform="translate(-37.69 -52.68)"/><path class="cls-80" d="M122.78,538.72l.33-3a2.05,2.05,0,1,1,4.08.44h0v.06l-.34,2.92v.06a2,2,0,0,1-4.07-.46Z" transform="translate(-37.69 -52.68)"/><path class="cls-80" d="M124.19,528.64l.6-3a2.08,2.08,0,1,1,4.08.81h0v0l-.58,2.89v.05a2.08,2.08,0,0,1-4.07-.82Z" transform="translate(-37.69 -52.68)"/><path class="cls-80" d="M126.47,518.73l.84-2.94a2.11,2.11,0,1,1,4.05,1.17h0v0l-.83,2.83,0,0a2.09,2.09,0,0,1-4-1.17Z" transform="translate(-37.69 -52.68)"/><path class="cls-80" d="M129.58,509l1.09-2.85a2.13,2.13,0,0,1,4,1.52h0l0,.05-1.07,2.75v.05a2.13,2.13,0,0,1-2.75,1.21A2.11,2.11,0,0,1,129.58,509Z" transform="translate(-37.69 -52.68)"/><path class="cls-80" d="M133.5,499.64l1.33-2.75a2.16,2.16,0,0,1,3.88,1.88h0l0,.05-1.3,2.64,0,0a2.16,2.16,0,0,1-2.88,1A2.14,2.14,0,0,1,133.5,499.64Z" transform="translate(-37.69 -52.68)"/><path class="cls-80" d="M138.21,490.61l1.57-2.62a2.18,2.18,0,1,1,3.74,2.23h0l0,0L142,492.8l0,.05a2.18,2.18,0,0,1-3.73-2.24Z" transform="translate(-37.69 -52.68)"/><path class="cls-80" d="M143.7,482l1.8-2.48a2.21,2.21,0,0,1,3.57,2.59h0l0,.05-1.74,2.37,0,.05A2.2,2.2,0,1,1,143.7,482Z" transform="translate(-37.69 -52.68)"/><path class="cls-80" d="M150,474l2-2.31a2.23,2.23,0,1,1,3.35,2.94h0l0,0-1.94,2.2,0,.05A2.22,2.22,0,0,1,150,474Z" transform="translate(-37.69 -52.68)"/><path class="cls-80" d="M156.93,466.5l2.23-2.1a2.25,2.25,0,0,1,3.09,3.28h0l-.05,0-2.14,2-.05,0a2.25,2.25,0,0,1-3.07-3.28Z" transform="translate(-37.69 -52.68)"/><path class="cls-80" d="M164.6,459.75l2.43-1.87a2.28,2.28,0,1,1,2.78,3.61h0l-.06,0-2.33,1.78-.06,0a2.27,2.27,0,0,1-2.76-3.61Z" transform="translate(-37.69 -52.68)"/><path class="cls-80" d="M172.93,453.81l2.61-1.62a2.3,2.3,0,0,1,2.42,3.92h0l-.06,0-2.5,1.52-.06,0a2.29,2.29,0,1,1-2.4-3.91Z" transform="translate(-37.69 -52.68)"/><path class="cls-80" d="M181.82,448.75l2.76-1.34a2.33,2.33,0,0,1,2,4.19h0l-.06,0-2.64,1.26-.06,0a2.32,2.32,0,0,1-2-4.18Z" transform="translate(-37.69 -52.68)"/><path class="cls-80" d="M191.16,444.6l2.87-1.07a2.35,2.35,0,1,1,1.65,4.41h0l-.06,0-2.76,1-.06,0a2.35,2.35,0,0,1-1.63-4.4Z" transform="translate(-37.69 -52.68)"/><path class="cls-80" d="M200.84,441.34l2.95-.81a2.38,2.38,0,1,1,1.26,4.58H205l-2.84.77h-.06a2.37,2.37,0,0,1-1.24-4.57Z" transform="translate(-37.69 -52.68)"/><path class="cls-80" d="M210.74,438.93l3-.56a2.39,2.39,0,0,1,.88,4.7h-.07l-2.89.53h-.06a2.39,2.39,0,1,1-.87-4.69Z" transform="translate(-37.69 -52.68)"/><path class="cls-80" d="M220.8,437.33l3-.33a2.4,2.4,0,0,1,.52,4.78h0l-2.93.31h-.06a2.4,2.4,0,0,1-.51-4.77Z" transform="translate(-37.69 -52.68)"/><path class="cls-80" d="M230.93,436.48l3-.12a2.42,2.42,0,1,1,.18,4.83h0l-3,.11h0a2.41,2.41,0,0,1-.18-4.82Z" transform="translate(-37.69 -52.68)"/><path class="cls-80" d="M241.09,436.33l3,.09a2.43,2.43,0,1,1-.14,4.85H244l-2.95-.09H241a2.43,2.43,0,0,1,.14-4.85Z" transform="translate(-37.69 -52.68)"/><path class="cls-80" d="M251.23,436.84l3,.27a2.44,2.44,0,0,1-.44,4.86h-.05l-2.95-.28h0a2.43,2.43,0,0,1,.44-4.85Z" transform="translate(-37.69 -52.68)"/><path class="cls-80" d="M261.32,438l3,.45a2.45,2.45,0,0,1-.73,4.85h0l-2.93-.45h0a2.45,2.45,0,1,1,.73-4.84Z" transform="translate(-37.69 -52.68)"/><path class="cls-80" d="M271.3,439.65l3,.61a2.46,2.46,0,0,1-1,4.83h-.05l-2.9-.6h0a2.46,2.46,0,0,1,1-4.83Z" transform="translate(-37.69 -52.68)"/><path class="cls-80" d="M281.18,441.83l2.94.74a2.48,2.48,0,1,1-1.21,4.81h0l-2.87-.73h0a2.48,2.48,0,0,1,1.21-4.8Z" transform="translate(-37.69 -52.68)"/><path class="cls-80" d="M290.94,444.45l2.9.86a2.49,2.49,0,1,1-1.41,4.77h0l-2.85-.85h0a2.48,2.48,0,1,1,1.42-4.76Z" transform="translate(-37.69 -52.68)"/><path class="cls-80" d="M300.58,447.43l2.86,1a2.5,2.5,0,1,1-1.59,4.74h0l-2.81-.95h0a2.5,2.5,0,0,1,1.59-4.74Z" transform="translate(-37.69 -52.68)"/><path class="cls-80" d="M310.09,450.74l2.84,1a2.52,2.52,0,1,1-1.74,4.72h0l-2.79-1h0a2.51,2.51,0,1,1,1.74-4.7Z" transform="translate(-37.69 -52.68)"/><path class="cls-80" d="M319.51,454.3l2.8,1.12a2.52,2.52,0,1,1-1.86,4.69h0L317.65,459h0a2.52,2.52,0,0,1,1.87-4.69Z" transform="translate(-37.69 -52.68)"/><path class="cls-80" d="M328.83,458.08l2.78,1.17a2.54,2.54,0,0,1-2,4.68h0l-2.75-1.16h0a2.53,2.53,0,0,1,2-4.67Z" transform="translate(-37.69 -52.68)"/><path class="cls-80" d="M338.06,462l2.76,1.21a2.55,2.55,0,0,1-2,4.67h0L336,466.69h0a2.54,2.54,0,1,1,2-4.66Z" transform="translate(-37.69 -52.68)"/><path class="cls-80" d="M347.23,466.08l2.75,1.24a2.56,2.56,0,0,1-2.11,4.67h0l-2.72-1.24h0a2.56,2.56,0,0,1,2.1-4.67Z" transform="translate(-37.69 -52.68)"/><path class="cls-80" d="M356.36,470.23l2.73,1.26a2.57,2.57,0,1,1-2.16,4.67h0l-2.71-1.26h0a2.57,2.57,0,0,1,2.16-4.66Z" transform="translate(-37.69 -52.68)"/><path class="cls-80" d="M365.44,474.45l2.72,1.28a2.59,2.59,0,1,1-2.2,4.68h0l-2.71-1.29h0a2.58,2.58,0,0,1,2.2-4.67Z" transform="translate(-37.69 -52.68)"/><path class="cls-80" d="M374.49,478.75l2.71,1.3a2.6,2.6,0,1,1-2.25,4.68h0l-2.69-1.3h0a2.59,2.59,0,0,1,2.25-4.67Z" transform="translate(-37.69 -52.68)"/><path class="cls-80" d="M383.51,483.11l2.7,1.31a2.61,2.61,0,0,1-2.29,4.7h0l-2.69-1.32a2.61,2.61,0,0,1,2.29-4.68Z" transform="translate(-37.69 -52.68)"/><path class="cls-80" d="M392.5,487.52l2.69,1.33a2.62,2.62,0,1,1-2.33,4.7h0l-2.68-1.34a2.62,2.62,0,0,1,2.33-4.69Z" transform="translate(-37.69 -52.68)"/><path class="cls-80" d="M401.46,492l2.69,1.35a2.63,2.63,0,1,1-2.36,4.71h0l-2.67-1.35a2.63,2.63,0,0,1,2.35-4.71Z" transform="translate(-37.69 -52.68)"/><path class="cls-80" d="M410.41,496.47l2.68,1.35a2.65,2.65,0,0,1-2.39,4.73h0L408,501.18a2.64,2.64,0,0,1,2.39-4.71Z" transform="translate(-37.69 -52.68)"/><path class="cls-80" d="M419.34,501l2.67,1.36a2.66,2.66,0,1,1-2.41,4.74h0l-2.67-1.37a2.65,2.65,0,1,1,2.41-4.73Z" transform="translate(-37.69 -52.68)"/><path class="cls-80" d="M428.25,505.53l2.68,1.37a2.67,2.67,0,0,1-2.43,4.76h0l-2.67-1.37a2.67,2.67,0,0,1,2.43-4.75Z" transform="translate(-37.69 -52.68)"/><path class="cls-80" d="M437.16,510.09l2.67,1.36a2.68,2.68,0,0,1-2.44,4.78h0l-2.66-1.38a2.67,2.67,0,0,1,2.44-4.76Z" transform="translate(-37.69 -52.68)"/><path class="cls-80" d="M446.07,514.64l2.67,1.37a2.7,2.7,0,1,1-2.46,4.8h0l-2.67-1.38a2.69,2.69,0,0,1,2.46-4.79Z" transform="translate(-37.69 -52.68)"/><path class="cls-80" d="M455,519.2l2.67,1.36a2.71,2.71,0,1,1-2.46,4.82h0L452.51,524A2.7,2.7,0,0,1,455,519.2Z" transform="translate(-37.69 -52.68)"/><path class="cls-80" d="M463.88,523.74l2.67,1.35a2.72,2.72,0,0,1-2.46,4.86h0l-2.68-1.36a2.73,2.73,0,0,1-1.18-3.66A2.7,2.7,0,0,1,463.88,523.74Z" transform="translate(-37.69 -52.68)"/><path class="cls-80" d="M472.8,528.25l2.67,1.35a2.73,2.73,0,1,1-2.45,4.88h0l-2.68-1.36a2.73,2.73,0,1,1,2.47-4.87Z" transform="translate(-37.69 -52.68)"/><path class="cls-80" d="M481.72,532.74l2.69,1.34A2.74,2.74,0,1,1,482,539h0l-2.68-1.35a2.74,2.74,0,0,1,2.45-4.9Z" transform="translate(-37.69 -52.68)"/><path class="cls-80" d="M490.67,537.19l2.69,1.32a2.76,2.76,0,0,1-2.44,5h0l-2.69-1.34a2.75,2.75,0,0,1,2.45-4.93Z" transform="translate(-37.69 -52.68)"/><path class="cls-80" d="M499.63,541.59l2.7,1.31h0a2.77,2.77,0,1,1-2.42,5h0l-2.7-1.32a2.77,2.77,0,1,1,2.43-5Z" transform="translate(-37.69 -52.68)"/><path class="cls-80" d="M508.62,545.93l2.7,1.29h0a2.78,2.78,0,1,1-2.4,5h0l-2.71-1.3a2.78,2.78,0,1,1,2.41-5Z" transform="translate(-37.69 -52.68)"/><path class="cls-80" d="M517.63,550.22l2.71,1.27h0a2.79,2.79,0,0,1-2.38,5h0l-2.72-1.28a2.79,2.79,0,0,1,2.38-5Z" transform="translate(-37.69 -52.68)"/><path class="cls-80" d="M526.67,554.43l2.72,1.25h0a2.79,2.79,0,1,1-2.33,5.07h0l-2.73-1.26a2.79,2.79,0,0,1,2.33-5.07Z" transform="translate(-37.69 -52.68)"/><path class="cls-80" d="M535.75,558.57l2.73,1.22h0a2.79,2.79,0,1,1-2.29,5.09h0l-2.74-1.23a2.79,2.79,0,1,1,2.28-5.09Z" transform="translate(-37.69 -52.68)"/><path class="cls-80" d="M544.86,562.62l2.75,1.19h0a2.79,2.79,0,0,1-2.23,5.12h0l-2.77-1.21a2.79,2.79,0,0,1,2.23-5.12Z" transform="translate(-37.69 -52.68)"/><path class="cls-80" d="M554,566.56l2.75,1.16h0a2.79,2.79,0,1,1-2.17,5.15h0l-2.77-1.17a2.79,2.79,0,0,1,2.17-5.15Z" transform="translate(-37.69 -52.68)"/><path class="cls-80" d="M563.22,570.4l2.77,1.12h0a2.79,2.79,0,0,1-2.11,5.17h0l-2.79-1.13a2.8,2.8,0,0,1,2.11-5.18Z" transform="translate(-37.69 -52.68)"/><path class="cls-80" d="M572.46,574.11l2.79,1.09h0a2.8,2.8,0,0,1-2,5.21h0l-2.81-1.1a2.79,2.79,0,0,1,2-5.2Z" transform="translate(-37.69 -52.68)"/><path class="cls-80" d="M581.76,577.7l2.79,1h0a2.8,2.8,0,1,1-2,5.24h0l-2.82-1.06a2.8,2.8,0,0,1,2-5.24Z" transform="translate(-37.69 -52.68)"/><path class="cls-80" d="M591.1,581.15l2.81,1h0a2.79,2.79,0,1,1-1.89,5.26h0l-2.84-1a2.8,2.8,0,0,1,1.89-5.27Z" transform="translate(-37.69 -52.68)"/><path class="cls-80" d="M600.49,584.46l2.82,1h0a2.8,2.8,0,1,1-1.8,5.3h0l-2.86-1a2.8,2.8,0,0,1,1.81-5.3Z" transform="translate(-37.69 -52.68)"/><path class="cls-80" d="M609.92,587.62l2.85.92h0a2.81,2.81,0,1,1-1.72,5.34h0l-2.87-.93a2.8,2.8,0,0,1,1.72-5.33Z" transform="translate(-37.69 -52.68)"/><path class="cls-80" d="M619.41,590.62l2.86.87h0a2.8,2.8,0,0,1-1.62,5.37h0l-2.89-.88a2.8,2.8,0,1,1,1.63-5.36Z" transform="translate(-37.69 -52.68)"/><path class="cls-80" d="M629,593.45l2.87.81h0a2.8,2.8,0,1,1-1.53,5.39h0l-2.9-.82a2.81,2.81,0,0,1,1.53-5.4Z" transform="translate(-37.69 -52.68)"/><path class="cls-80" d="M638.54,596.1l2.88.75h0a2.8,2.8,0,0,1-1.42,5.42h0l-2.92-.76a2.81,2.81,0,0,1,1.42-5.43Z" transform="translate(-37.69 -52.68)"/><path class="cls-80" d="M648.17,598.55l2.9.7h0a2.81,2.81,0,0,1-1.31,5.46h0l-2.94-.71a2.8,2.8,0,1,1,1.32-5.45Z" transform="translate(-37.69 -52.68)"/><path class="cls-80" d="M657.86,600.81l2.91.63h0a2.8,2.8,0,0,1-1.2,5.48h0l-3-.64a2.81,2.81,0,0,1,1.2-5.49Z" transform="translate(-37.69 -52.68)"/><path class="cls-80" d="M667.58,602.85l2.93.57h0a2.81,2.81,0,0,1-1.08,5.52h0l-3-.58a2.81,2.81,0,1,1,1.07-5.51Z" transform="translate(-37.69 -52.68)"/><path class="cls-80" d="M677.35,604.67l2.94.5h0a2.81,2.81,0,1,1-.95,5.54h0l-3-.51a2.81,2.81,0,1,1,.94-5.54Z" transform="translate(-37.69 -52.68)"/><path class="cls-80" d="M687.15,606.26l3,.43h0a2.81,2.81,0,0,1-.81,5.57h0l-3-.44a2.81,2.81,0,0,1,.82-5.56Z" transform="translate(-37.69 -52.68)"/><path class="cls-80" d="M697,607.61l3,.35h0a2.82,2.82,0,0,1-.67,5.59h0l-3-.36a2.82,2.82,0,1,1,.67-5.59Z" transform="translate(-37.69 -52.68)"/><path class="cls-80" d="M706.85,608.7l3,.27h0a2.82,2.82,0,0,1-.53,5.61h0l-3-.28a2.82,2.82,0,0,1,.52-5.61Z" transform="translate(-37.69 -52.68)"/><path class="cls-80" d="M716.74,609.52l3,.2h0a2.82,2.82,0,0,1-.37,5.62h0l-3-.2a2.82,2.82,0,0,1,.37-5.62Z" transform="translate(-37.69 -52.68)"/><path class="cls-80" d="M726.64,610.08l3,.11h0a2.82,2.82,0,0,1-.21,5.63h0l-3-.12a2.81,2.81,0,1,1,.21-5.62Z" transform="translate(-37.69 -52.68)"/><path class="cls-80" d="M736.55,610.35l3,0h0a2.82,2.82,0,1,1,0,5.64h0l-3,0a2.82,2.82,0,1,1,0-5.63Z" transform="translate(-37.69 -52.68)"/><path class="cls-80" d="M746.46,610.33l3-.07h0a2.82,2.82,0,0,1,.13,5.64h0l-3,.06a2.82,2.82,0,0,1-.13-5.63Z" transform="translate(-37.69 -52.68)"/><path class="cls-80" d="M756.36,610l3-.16h0a2.82,2.82,0,0,1,.31,5.63h0l-3,.17a2.82,2.82,0,1,1-.32-5.63Z" transform="translate(-37.69 -52.68)"/><path class="cls-80" d="M766.24,609.33l3-.27h0a2.82,2.82,0,0,1,.51,5.62h0l-3,.27a2.82,2.82,0,1,1-.5-5.62Z" transform="translate(-37.69 -52.68)"/><path class="cls-80" d="M776.1,608.33l2.95-.37h0a2.82,2.82,0,0,1,.69,5.6h0l-3,.37a2.82,2.82,0,1,1-.69-5.6Z" transform="translate(-37.69 -52.68)"/><path class="cls-80" d="M785.91,607l2.94-.47h0a2.82,2.82,0,1,1,.89,5.57h0l-3,.48a2.83,2.83,0,0,1-.89-5.58Z" transform="translate(-37.69 -52.68)"/><path class="cls-80" d="M795.67,605.33l2.92-.57h0a2.82,2.82,0,1,1,1.07,5.54h0l-3,.58a2.83,2.83,0,1,1-1.07-5.55Z" transform="translate(-37.69 -52.68)"/><path class="cls-80" d="M805.37,603.33l2.89-.67h0a2.83,2.83,0,1,1,1.27,5.51h0l-2.95.68a2.83,2.83,0,0,1-1.27-5.51Z" transform="translate(-37.69 -52.68)"/><path class="cls-80" d="M815,601l2.87-.76h0a2.83,2.83,0,1,1,1.46,5.46h0l-2.93.78A2.83,2.83,0,1,1,815,601Z" transform="translate(-37.69 -52.68)"/><path class="cls-80" d="M824.52,598.3l2.84-.87h0a2.83,2.83,0,0,1,1.66,5.41h0l-2.89.89a2.83,2.83,0,1,1-1.66-5.41Z" transform="translate(-37.69 -52.68)"/><path class="cls-80" d="M833.94,595.28l2.8-1,0,0a2.83,2.83,0,1,1,1.86,5.35h0l-2.86,1a2.83,2.83,0,0,1-1.86-5.35Z" transform="translate(-37.69 -52.68)"/><path class="cls-80" d="M843.24,591.91l2.77-1.08h0a2.83,2.83,0,0,1,2.06,5.27h0l-2.82,1.11a2.83,2.83,0,0,1-2.06-5.28Z" transform="translate(-37.69 -52.68)"/><path class="cls-80" d="M852.4,588.19l2.72-1.19h0a2.83,2.83,0,0,1,2.27,5.19h0l-2.78,1.21a2.83,2.83,0,1,1-2.26-5.19Z" transform="translate(-37.69 -52.68)"/><path class="cls-80" d="M861.41,584.11l2.67-1.29h0a2.83,2.83,0,1,1,2.47,5.1h0l-2.73,1.32a2.83,2.83,0,0,1-2.47-5.1Z" transform="translate(-37.69 -52.68)"/><path class="cls-80" d="M870.25,579.68l2.61-1.4,0,0a2.84,2.84,0,0,1,2.68,5h0l-2.68,1.43a2.83,2.83,0,0,1-2.67-5Z" transform="translate(-37.69 -52.68)"/><path class="cls-80" d="M878.89,574.89l2.55-1.51,0,0a2.84,2.84,0,1,1,2.89,4.88h0l-2.62,1.55a2.83,2.83,0,1,1-2.88-4.88Z" transform="translate(-37.69 -52.68)"/><path class="cls-80" d="M887.32,569.73l2.48-1.62,0,0a2.84,2.84,0,0,1,3.1,4.76h0l-2.54,1.65a2.84,2.84,0,1,1-3.1-4.75Z" transform="translate(-37.69 -52.68)"/><path class="cls-80" d="M895.51,564.21l2.4-1.72,0,0a2.84,2.84,0,0,1,3.31,4.61h0l-2.47,1.77a2.84,2.84,0,0,1-3.3-4.62Z" transform="translate(-37.69 -52.68)"/><path class="cls-80" d="M903.43,558.33l2.32-1.83,0,0a2.84,2.84,0,1,1,3.52,4.45h0l-2.38,1.89a2.84,2.84,0,1,1-3.52-4.46Z" transform="translate(-37.69 -52.68)"/><path class="cls-80" d="M911.07,552.09l2.23-1.94,0,0a2.84,2.84,0,1,1,3.73,4.28h0l-2.29,2a2.84,2.84,0,0,1-3.73-4.29Z" transform="translate(-37.69 -52.68)"/><path class="cls-80" d="M918.4,545.5l2.14-2,0,0a2.84,2.84,0,1,1,3.93,4.11h0l-2.19,2.1a2.84,2.84,0,0,1-3.94-4.1Z" transform="translate(-37.69 -52.68)"/><path class="cls-80" d="M925.4,538.55l2-2.15,0,0a2.84,2.84,0,1,1,4.13,3.91h0l-2.09,2.21a2.84,2.84,0,0,1-4.13-3.91Z" transform="translate(-37.69 -52.68)"/><path class="cls-80" d="M932,531.27,934,529l0,0a2.84,2.84,0,1,1,4.33,3.69h0l-2,2.31A2.84,2.84,0,0,1,932,531.3Z" transform="translate(-37.69 -52.68)"/><path class="cls-80" d="M938.28,523.67l1.78-2.34,0-.05a2.84,2.84,0,0,1,4.53,3.43l-1.84,2.44a2.85,2.85,0,0,1-4.55-3.42h0Z" transform="translate(-37.69 -52.68)"/><path class="cls-80" d="M944.05,515.72l1.65-2.45,0,0a2.82,2.82,0,0,1,4.68,3.13l-1.69,2.52a2.82,2.82,0,1,1-4.69-3.12h0Z" transform="translate(-37.69 -52.68)"/><path class="cls-80" d="M949.42,507.45l1.54-2.53,0,0a2.79,2.79,0,0,1,4.77,2.89l-1.56,2.6a2.8,2.8,0,1,1-4.79-2.89h0Z" transform="translate(-37.69 -52.68)"/><path class="cls-80" d="M954.42,498.94l1.43-2.6,0,0a2.76,2.76,0,0,1,4.85,2.65l-1.45,2.66A2.77,2.77,0,1,1,954.4,499h0Z" transform="translate(-37.69 -52.68)"/><path class="cls-80" d="M959.05,490.22l1.31-2.65,0,0a2.7,2.7,0,0,1,4.85,2.36l-1.3,2.74a2.72,2.72,0,0,1-4.91-2.34v0Z" transform="translate(-37.69 -52.68)"/><path class="cls-80" d="M963.25,481.3l1.16-2.71,0,0a2.63,2.63,0,0,1,4.85,2l-1.16,2.82a2.65,2.65,0,1,1-4.9-2v0Z" transform="translate(-37.69 -52.68)"/><path class="cls-80" d="M966.92,472.18l1-2.78,0,0a2.56,2.56,0,0,1,4.84,1.68l-1,2.9a2.59,2.59,0,1,1-4.9-1.67v0Z" transform="translate(-37.69 -52.68)"/><path class="cls-80" d="M970,462.86l.78-2.83,0-.07a2.46,2.46,0,0,1,4.76,1.26l-.75,3A2.5,2.5,0,0,1,970,463v0Z" transform="translate(-37.69 -52.68)"/><path class="cls-80" d="M972.28,453.36l.5-2.88v-.08a2.36,2.36,0,0,1,4.65.76l-.46,3a2.39,2.39,0,0,1-4.72-.72v-.12Z" transform="translate(-37.69 -52.68)"/><path class="cls-80" d="M973.57,443.72l.15-2.9v-.1a2.23,2.23,0,0,1,4.45.17l-.07,3.1a2.28,2.28,0,0,1-4.55-.11v-.16Z" transform="translate(-37.69 -52.68)"/><path class="cls-80" d="M973.58,434.06l-.31-2.87v-.11a2.09,2.09,0,0,1,4.14-.5l.42,3.08a2.13,2.13,0,1,1-4.23.57v-.17Z" transform="translate(-37.69 -52.68)"/><path class="cls-80" d="M971.94,424.62l-.85-2.75,0-.12a1.92,1.92,0,0,1,3.64-1.21l1,2.95a2,2,0,1,1-3.73,1.32.14.14,0,0,1,0-.07Z" transform="translate(-37.69 -52.68)"/><path class="cls-80" d="M968.39,415.75l-1.45-2.47-.07-.11a1.72,1.72,0,0,1,2.93-1.81l1.69,2.63a1.78,1.78,0,0,1-3,1.93l0-.05Z" transform="translate(-37.69 -52.68)"/><path class="cls-80" d="M962.86,407.94l-2-2.09-.07-.07a1.52,1.52,0,0,1,2.15-2.16l2.24,2.15a1.58,1.58,0,1,1-2.19,2.29.08.08,0,0,0,0,0Z" transform="translate(-37.69 -52.68)"/><path class="cls-80" d="M955.65,401.48l-2.41-1.66-.06,0a1.29,1.29,0,0,1,1.41-2.15l2.61,1.61a1.36,1.36,0,1,1-1.43,2.32l-.06,0Z" transform="translate(-37.69 -52.68)"/><path class="cls-81" d="M170.68,615.35H380.89V583.11H170.68C175.18,583.11,175.18,615.35,170.68,615.35Z" transform="translate(-37.69 -52.68)"/><path class="cls-82" d="M380.89,607.28V592.53a9.36,9.36,0,0,0-9.28-9.42h-200c-4,0-7.3-2.5-7.3-5.59h0a2,2,0,0,1,2.22-1.7H385.12c5,0,13,6,13,13.49v20.61c0,7-7.73,12.72-12.45,12.72h-218c-1.86,0-3.37-1.16-3.37-2.58h0c0-2.6,2.75-4.71,6.15-4.71H372.94A8,8,0,0,0,380.89,607.28Z" transform="translate(-37.69 -52.68)"/><path class="cls-18" d="M375.06,590.73H178a1,1,0,0,1,0-2h197.1a1,1,0,0,1,0,2Z" transform="translate(-37.69 -52.68)"/><path class="cls-18" d="M375.06,595.51H178a1,1,0,0,1,0-2h197.1a1,1,0,0,1,0,2Z" transform="translate(-37.69 -52.68)"/><path class="cls-18" d="M375.06,600.3H178a1,1,0,0,1,0-2h197.1a1,1,0,0,1,0,2Z" transform="translate(-37.69 -52.68)"/><path class="cls-18" d="M375.06,605.08H178a1,1,0,0,1,0-2h197.1a1,1,0,1,1,0,2Z" transform="translate(-37.69 -52.68)"/><path class="cls-18" d="M375.06,609.87H178a1,1,0,0,1,0-2h197.1a1,1,0,1,1,0,2Z" transform="translate(-37.69 -52.68)"/><rect class="cls-83" x="35.91" y="632.39" width="333.72" height="63.05" rx="20.09"/><rect class="cls-84" x="73.63" y="639.64" width="39.2" height="48.55" rx="7.24"/><path class="cls-85" d="M401.62,626.14V637a5.9,5.9,0,0,1-3,4.86l-1.87,1.2c-1.53,1-1.21,2.83.62,3.49h0c1.2.44,1.42,1.64.42,2.31l-2.35,1.56a2.19,2.19,0,0,0,0,3.85l1.69,1.13a2,2,0,0,1-.09,3.62l-1.81,1.13a1.91,1.91,0,0,0-.48,3.14l1,1a3.4,3.4,0,0,1,1.1,2.44v17.15H150.78V625.11Z" transform="translate(-37.69 -52.68)"/><path class="cls-86" d="M159.31,638.72H393c.51,0,.92-.31.92-.69s-.41-.69-.92-.69H159.31c-.51,0-.92.31-.92.69S158.8,638.72,159.31,638.72Z" transform="translate(-37.69 -52.68)"/><path class="cls-86" d="M159.31,648.94H387.46c.51,0,.92-.31.92-.69s-.41-.68-.92-.68H159.31c-.51,0-.92.3-.92.68S158.8,648.94,159.31,648.94Z" transform="translate(-37.69 -52.68)"/><path class="cls-86" d="M159.31,656.47H384.62c.51,0,.92-.31.92-.69s-.41-.69-.92-.69H159.31c-.51,0-.92.31-.92.69S158.8,656.47,159.31,656.47Z" transform="translate(-37.69 -52.68)"/><path class="cls-87" d="M146.32,621.37H407c2,0,3.76,1.08,3.95,2.56.21,1.69-1.56,3.11-3.79,3.11H165.45c-4.25,0-7.92,2.22-8.8,5.32-4,13.88-3.65,28.33.07,43.25.87,3.46,4.92,6,9.64,6H402.22c2,0,3.76,1.09,3.95,2.56.22,1.69-1.56,3.12-3.78,3.12H148.05c-6.08,0-11.32-3.24-12.4-7.71-4.4-18.09-4.78-35.45,0-51.88,1.07-3.69,5.49-6.29,10.54-6.29Z" transform="translate(-37.69 -52.68)"/><path class="cls-88" d="M294.52,518.44c-.1,0-52.78-92.3-59.9-101a5.52,5.52,0,0,0-4.93-2L215,417.23,197.71,454.6l28.78-16.76c-2.85,19.7,34.12,49,46.8,59.65a2.9,2.9,0,0,1,.23,4.24l-5.06,5.3a58.23,58.23,0,0,0,28.73,16.34Z" transform="translate(-37.69 -52.68)"/><path class="cls-89" d="M271.39,504.17a7.43,7.43,0,0,0-4.32,3.92,3.3,3.3,0,0,0,1.23,3.8c5.32,3.81,22.87,16.11,31,18.52a.92.92,0,0,0,1.15-1.08c-.42-1.88-1.76-5.63-6.09-11.13l.38.78a1.12,1.12,0,0,1-1.55,1.49C287.74,517.41,276.71,510.72,271.39,504.17Z" transform="translate(-37.69 -52.68)"/><path class="cls-90" d="M274,541.09c-.09-.06-8-19.1-8.08-19.16C258.67,477.8,241,440,235.77,430.07a5.53,5.53,0,0,0-4.42-2.94l-14.76-1.26L192.11,459l31.58-10.59c-6.78,18.71,23.51,54.86,33.76,67.88a2.91,2.91,0,0,1-.63,4.2l-6,4.17a58.13,58.13,0,0,0,24.82,21.81Z" transform="translate(-37.69 -52.68)"/><path class="cls-91" d="M254.24,522.43a7.46,7.46,0,0,0-5,3,3.3,3.3,0,0,0,.44,4c4.44,4.81,19.14,20.41,26.58,24.41a.91.91,0,0,0,1.34-.82c0-1.93-.58-5.88-3.71-12.14l.22.84a1.13,1.13,0,0,1-1.83,1.14C267.57,538.7,258.12,529.92,254.24,522.43Z" transform="translate(-37.69 -52.68)"/><path class="cls-92" d="M147.52,418.9s-13.35,19.85-14.44,28.91,3.69,12.19,17.66,13.34c41.58,3.44,62.07-9,62.07-9,2.85-18.13,4.87-22.75,28.62-32.61,0,0-30,2.39-36.09,0S147.52,418.9,147.52,418.9Z" transform="translate(-37.69 -52.68)"/><path class="cls-93" d="M187,301.85S180.39,304.5,179,308c-1.15,2.81-8.26,2.67-9.36,8.26a6.51,6.51,0,0,1-5.83,5.31c-7.32.58-18.73,3.54-21.41,16-2.05,9.49,2.57,13.47,7.61,15.1a7.29,7.29,0,0,1,4.9,8.78c-1,3.6-.21,7.89,5.87,11.68,13.62,8.49,29.56-15.66,29.56-15.66l6.06-43.73Z" transform="translate(-37.69 -52.68)"/><path class="cls-94" d="M183.62,416.27s15.55-14.8,23.2-24.6A20.83,20.83,0,0,0,210.34,373c-3.49-11.77-9.7-24-10.27-25.86-.87-2.91-18.3-2.79-18.3-2.79s-34.29,22.26-47.77,60L149.13,409s9-15,17.81-24.58c0,0-15.31,20.23-15.85,28.51Z" transform="translate(-37.69 -52.68)"/><path class="cls-95" d="M213.24,422.11l-11.68-12.7L188.07,413s-15.73,2.43-24.73,0l-9-2.44L134,404.27l-3.19,9a5.43,5.43,0,0,0,2,6.24,35.22,35.22,0,0,0,5.14,3.2c2.68,1.17,61.7.37,61.7.37Z" transform="translate(-37.69 -52.68)"/><path class="cls-96" d="M190.47,322.25,182,345.13c.77,4.76,12.75,4.89,14.6,2.05a3,3,0,0,0,.37-1l3.79-17.89a3.26,3.26,0,0,0-1.66-3.55l-4.65-2.48C192.69,321.35,191.09,320.32,190.47,322.25Z" transform="translate(-37.69 -52.68)"/><path class="cls-97" d="M202.68,301.23s5.87,4.62,7.76,15.46-2.7,14.35-7.1,13.8-10.72-2.38-15.72-10.42S195,295.54,202.68,301.23Z" transform="translate(-37.69 -52.68)"/><path class="cls-98" d="M193.53,316.18s-1.17-15.42,11.33-12.18l2.37,2.85s6.7-6.53.22-12.3-16.1-5.11-22.06,4.12S177,314.52,181,320.8s7.68,1.41,7.68,1.41-1.66-5.31.18-7.41,3.76,1.57,3.76,1.57Z" transform="translate(-37.69 -52.68)"/><path class="cls-99" d="M191.7,317.36s-.55-7.93-4.72-6,.92,7.43,3,9.32Z" transform="translate(-37.69 -52.68)"/><path class="cls-100" d="M174.58,427.14h.12l53.72-.06a2.41,2.41,0,0,0,0-4.81l-53.73.06a2.4,2.4,0,0,0-.11,4.8Z" transform="translate(-37.69 -52.68)"/><path class="cls-101" d="M276.72,378.37H232a8.53,8.53,0,0,0-7.72,4.89l-20.68,43.85h55.6a5.18,5.18,0,0,0,4.82-3.27l16-40.59A3.57,3.57,0,0,0,276.72,378.37Z" transform="translate(-37.69 -52.68)"/><path class="cls-102" d="M245.2,400.85c-1,3-.26,5.94,1.6,6.54s4.14-1.36,5.11-4.38.25-5.93-1.6-6.53S246.17,397.84,245.2,400.85Z" transform="translate(-37.69 -52.68)"/><path class="cls-103" d="M321.41,656.59c-1.87,2.77-9.31,65.49-10.47,88.65a2.73,2.73,0,0,0,2.74,2.87h0a2.74,2.74,0,0,0,2.71-2.32L330,658.59Z" transform="translate(-37.69 -52.68)"/><path class="cls-104" d="M381.23,656.59c1.87,2.77,9.31,65.49,10.48,88.65a2.75,2.75,0,0,1-2.75,2.87h0a2.74,2.74,0,0,1-2.71-2.32l-13.61-87.2Z" transform="translate(-37.69 -52.68)"/><path class="cls-105" d="M310.16,651.7v.68c0,4.92,4.2,9,9.5,9l62.9,1.07c5.23.09,9.59-3.69,9.85-8.54l0-.62c.27-5.05-4-9.31-9.48-9.41L320,642.8C314.64,642.71,310.2,646.71,310.16,651.7Z" transform="translate(-37.69 -52.68)"/><path class="cls-106" d="M432.52,743c-11.18,0-16.12-1-18.34-1.83a4.25,4.25,0,0,0,4.14,3.29h39.55a1.93,1.93,0,0,0,1.86-2.43C455.22,742.35,445.64,743,432.52,743Z" transform="translate(-37.69 -52.68)"/><path class="cls-107" d="M459.73,742a1.87,1.87,0,0,0-.33-.68c-3-3.84-9.06-9.88-17.3-9.77-12.06.17-16.27,1.48-25.64.07l-2.21,7.33a4.2,4.2,0,0,0-.07,2.19c2.22.88,7.16,1.83,18.34,1.83C445.64,743,455.22,742.35,459.73,742Z" transform="translate(-37.69 -52.68)"/><path class="cls-108" d="M419.18,723.72,416.46,733s6,2.73,11.3.54l1-8Z" transform="translate(-37.69 -52.68)"/><path class="cls-109" d="M501.16,737.15c-8.72,7-13.17,9.36-15.44,10.07a4.25,4.25,0,0,0,5.27,0l30.83-24.78a1.92,1.92,0,0,0-.06-3C518.47,722.46,511.38,728.94,501.16,737.15Z" transform="translate(-37.69 -52.68)"/><path class="cls-110" d="M521.76,719.35a2.13,2.13,0,0,0-.68-.32c-4.74-1.09-13.23-2-19.57,3.26-9.3,7.69-11.76,11.33-19.95,16.12l2.85,7.07a4.19,4.19,0,0,0,1.31,1.74c2.27-.71,6.72-3.07,15.44-10.07C511.38,728.94,518.47,722.46,521.76,719.35Z" transform="translate(-37.69 -52.68)"/><path class="cls-111" d="M361.11,618.54s66.94,5.47,80.68,11.93-11.21,97.07-11.21,97.07-3.74,1.8-12.06-.79c0,0,8.53-66.86,2.19-81.36l-72.49-11.85Z" transform="translate(-37.69 -52.68)"/><path class="cls-112" d="M474.91,725.68c.62.56,6.65,12.73,6.65,12.73s6.72-1.46,8.09-5.7l-6-11Z" transform="translate(-37.69 -52.68)"/><path class="cls-113" d="M320.79,618a33.9,33.9,0,0,0-2.09,12.22,18.35,18.35,0,0,0,17.51,18l79.14,3.61a3.81,3.81,0,0,1,3.51,2.85c1.86,7.2,10.95,29.28,55.38,73.36a3.58,3.58,0,0,0,4.43.48l6.32-4a1.45,1.45,0,0,0,.48-2L439.4,643.82a17.82,17.82,0,0,0-10.84-8l-67.45-17.24Z" transform="translate(-37.69 -52.68)"/><path class="cls-114" d="M398.78,495.07s-8.48,15-17.12,22.25l17.87,10s4-15.87,13.22-20.52Z" transform="translate(-37.69 -52.68)"/><path class="cls-115" d="M319.36,618.54s21.36,5.21,41.75,0c0,0,28.54-38.36,39.58-48.8,0,0,17.6,27.79,56.8,31.72l2.18-4.88s-31.2-14.38-40.8-36.48-13.47-31.53-22.21-37.3c-5.44-3.59-8.7-6-10.38-7.38a2.77,2.77,0,0,0-3.2-.2C373.8,520.87,330.16,550.76,319.36,618.54Z" transform="translate(-37.69 -52.68)"/><path class="cls-116" d="M399.53,570.07a2.22,2.22,0,0,1-1.78-.88,86.54,86.54,0,0,1-10.88-19.27,2.24,2.24,0,0,1,4.19-1.61,83.47,83.47,0,0,0,10.25,18.15,2.24,2.24,0,0,1-1.78,3.61Z" transform="translate(-37.69 -52.68)"/><path class="cls-117" d="M455.13,594l4.41-1.18,13.4-3.1a6.2,6.2,0,0,1,4.71.8l11.51,7.24-31.8,0Z" transform="translate(-37.69 -52.68)"/><path class="cls-118" d="M412.24,472.59s8.24,13.7,9.67,21.27,3.72,12.3-4.89,15-16.62-.72-21.65-7.79c0,0-7.84-10.87-7.06-15.85S412.24,472.59,412.24,472.59Z" transform="translate(-37.69 -52.68)"/><path class="cls-119" d="M397.67,495.21l1.11-.14s-5.83-8.82-2-11,19.38-7.56,22.08-13.68c2.6-5.91-1.29-12.58-6-14a.59.59,0,0,0-.72.37l-.27.75a.6.6,0,0,1-1.12,0h0a.61.61,0,0,0-1.1,0c-.83,1.83-3.33,5-10.81,7.39-10.61,3.44-17.22,8.79-16.41,16.34a.6.6,0,0,1-.86.61c-.87-.38-2.19-.44-3.71,1.23-2.66,2.9-.58,9.26,6.68,13.75a.61.61,0,0,1,.09,1c-1.08.93-2.61,3,2.3,4.85s7.76,1.25,8.77.84a.61.61,0,0,0,.38-.68l-1.29-6.61a.6.6,0,0,1,.51-.71Z" transform="translate(-37.69 -52.68)"/><path class="cls-120" d="M398.12,496.57s-3.63-9-7.45-5.81,3.53,10.11,6.92,10Z" transform="translate(-37.69 -52.68)"/><path class="cls-121" d="M442.84,604H443L511,604a3,3,0,0,0,0-6.08L443,598a3,3,0,0,0-.15,6.07Z" transform="translate(-37.69 -52.68)"/><path class="cls-122" d="M537.26,537.49l-.07.14L508.6,599.27a3,3,0,1,0,5.51,2.55l28.59-61.64a3,3,0,0,0-5.44-2.69Z" transform="translate(-37.69 -52.68)"/><path class="cls-123" d="M473.1,607.44C472.8,608.67,444.45,715,437.26,742a4.87,4.87,0,0,0,4.67,6.15h0a4.83,4.83,0,0,0,4.68-3.7l31.47-127.6Z" transform="translate(-37.69 -52.68)"/><path class="cls-124" d="M488.62,607.44c.3,1.23,28.65,107.56,35.84,134.52a4.87,4.87,0,0,1-4.67,6.15h0a4.83,4.83,0,0,1-4.68-3.7l-31.47-127.6Z" transform="translate(-37.69 -52.68)"/><path class="cls-125" d="M489.8,604H472.15v14.18a3.66,3.66,0,0,0,3.64,3.69h2.43v31.85a2.77,2.77,0,0,0,2.76,2.8h0a2.78,2.78,0,0,0,2.76-2.8V621.83H485a4.86,4.86,0,0,0,4.83-4.89Z" transform="translate(-37.69 -52.68)"/><path class="cls-126" d="M428.73,600.56h98.59a3,3,0,0,1,2.93,2.29l1.38,5.4a3.05,3.05,0,0,1-3,3.82l-101.16-.59a3.05,3.05,0,0,1-2.92-3.8l1.2-4.81A3,3,0,0,1,428.73,600.56Z" transform="translate(-37.69 -52.68)"/></svg>